<svg xmlns="http://www.w3.org/2000/svg" width="16.001" height="16" viewBox="0 0 16.001 16">
  <g id="Сгруппировать_16610" data-name="Сгруппировать 16610" transform="translate(-318.423 -788.99)">
    <path id="Контур_11136" data-name="Контур 11136" d="M12.8,6.32,16,3.2,12.8,0,11.68,1.12,12.96,2.4H2.4V12.96L1.12,11.68,0,12.8,3.2,16l3.12-3.2L5.2,11.68,4,12.96V4h8.96L11.68,5.2Z" transform="translate(334.424 804.99) rotate(180)" fill="#cecece"/>
    <path id="Контур_11137" data-name="Контур 11137" d="M17.6,17.6H16v1.6h3.208V16H17.6Z" transform="translate(337.631 808.198) rotate(180)" fill="#cecece"/>
    <rect id="Прямоугольник_17998" data-name="Прямоугольник 17998" width="1" height="2" transform="translate(324.451 790.99) rotate(180)" fill="#cecece"/>
    <rect id="Прямоугольник_17999" data-name="Прямоугольник 17999" width="2" height="2" transform="translate(328.441 790.99) rotate(180)" fill="#cecece"/>
    <rect id="Прямоугольник_18000" data-name="Прямоугольник 18000" width="2" height="2" transform="translate(320.463 798.967) rotate(180)" fill="#cecece"/>
    <rect id="Прямоугольник_18001" data-name="Прямоугольник 18001" width="2" height="1" transform="translate(320.463 794.977) rotate(180)" fill="#cecece"/>
  </g>
</svg>
