<svg xmlns="http://www.w3.org/2000/svg" width="16.517" height="16" viewBox="0 0 16.517 16">
  <path id="Контур_11235" data-name="Контур 11235" d="M34.516,25.968v-.774H32.968v.774a.258.258,0,0,1-.258.258H30.387v-4.9A2.323,2.323,0,0,0,28.065,19H24.452a2.323,2.323,0,0,0-2.323,2.323v4.9H19.806a.258.258,0,0,1-.258-.258v-.774H18v.774A1.806,1.806,0,0,0,19.29,27.7v5.752H18V35H34.516V33.452h-1.29V27.7A1.806,1.806,0,0,0,34.516,25.968Zm-11.1,7.484H20.839V27.774h2.581Zm4.129,0H24.968V27.774h2.581Zm1.29-7.226H23.677v-4.9a.774.774,0,0,1,.774-.774h3.613a.774.774,0,0,1,.774.774Zm2.839,7.226H29.1V27.774h2.581Z" transform="translate(-18 -19)"/>
</svg>
