<svg id="Сгруппировать_14877" data-name="Сгруппировать 14877" xmlns="http://www.w3.org/2000/svg" width="16.596" height="16" viewBox="0 0 16.596 16">
  <path id="Контур_11225" data-name="Контур 11225" d="M15.6,8.185H13.93V2.061A2.061,2.061,0,0,0,10.363.654l-.492.526A1.839,1.839,0,0,0,8.186,3.01a.332.332,0,0,0,.332.332h3.011a.332.332,0,0,0,.332-.332,1.839,1.839,0,0,0-1.186-1.716l.174-.186a1.4,1.4,0,0,1,2.418.954V8.185H1a1,1,0,0,0-1,1v.682a.332.332,0,0,0,.332.332H.911l.3,1.037a4.226,4.226,0,0,0,1.9,2.43,3.576,3.576,0,0,0-.623,2.007A.332.332,0,0,0,2.823,16h.664a.332.332,0,0,0,.332-.332,2.3,2.3,0,0,1,.5-1.412l.061-.1a4.156,4.156,0,0,0,.884.1h6a4.257,4.257,0,0,0,.953-.111l.1.156a2.242,2.242,0,0,1,.466,1.364A.332.332,0,0,0,13.11,16h.664a.332.332,0,0,0,.332-.332,3.506,3.506,0,0,0-.638-2.027A4.328,4.328,0,0,0,15.4,11.159l.283-.964h.579a.332.332,0,0,0,.332-.332V9.181A1,1,0,0,0,15.6,8.185Z" transform="translate(0 -0.001)"/>
  <path id="Контур_11226" data-name="Контур 11226" d="M49.6,39.316a.332.332,0,0,0,.663,0v-.332a.332.332,0,1,0-.663,0Z" transform="translate(-41.372 -32.238)"/>
  <path id="Контур_11227" data-name="Контур 11227" d="M49.937,23.648a.332.332,0,0,0,.332-.332v-.332a.332.332,0,0,0-.663,0v.332A.332.332,0,0,0,49.937,23.648Z" transform="translate(-41.372 -18.893)"/>
  <path id="Контур_11228" data-name="Контур 11228" d="M49.6,31.316a.332.332,0,0,0,.663,0v-.332a.332.332,0,0,0-.663,0Z" transform="translate(-41.372 -25.566)"/>
  <path id="Контур_11229" data-name="Контур 11229" d="M66.613,31.316a.332.332,0,0,0,.663,0v-.332a.332.332,0,1,0-.663,0Z" transform="translate(-55.558 -25.566)"/>
  <path id="Контур_11230" data-name="Контур 11230" d="M66.945,23.648a.332.332,0,0,0,.332-.332v-.332a.332.332,0,0,0-.663,0v.332A.332.332,0,0,0,66.945,23.648Z" transform="translate(-55.558 -18.893)"/>
  <path id="Контур_11231" data-name="Контур 11231" d="M66.613,39.316a.332.332,0,0,0,.663,0v-.332a.332.332,0,1,0-.663,0Z" transform="translate(-55.558 -32.238)"/>
  <path id="Контур_11232" data-name="Контур 11232" d="M58.158,23.648a.332.332,0,0,0,.332-.332v-.332a.332.332,0,1,0-.663,0v.332A.332.332,0,0,0,58.158,23.648Z" transform="translate(-48.229 -18.893)"/>
  <path id="Контур_11233" data-name="Контур 11233" d="M57.826,39.316a.332.332,0,0,0,.663,0v-.332a.332.332,0,1,0-.663,0Z" transform="translate(-48.229 -32.238)"/>
  <path id="Контур_11234" data-name="Контур 11234" d="M57.826,31.316a.332.332,0,0,0,.663,0v-.332a.332.332,0,1,0-.663,0Z" transform="translate(-48.229 -25.566)"/>
</svg>
