<svg xmlns="http://www.w3.org/2000/svg" width="115.533" height="101.684" viewBox="0 0 115.533 101.684">
  <g id="Сгруппировать_16670" data-name="Сгруппировать 16670" transform="translate(-1671 -3917.145)">
    <g id="Сгруппировать_15800" data-name="Сгруппировать 15800" transform="translate(85 563.145)">
      <g id="Сгруппировать_16298" data-name="Сгруппировать 16298" transform="translate(-101)">
        <rect id="Прямоугольник_18218" data-name="Прямоугольник 18218" width="27.482" height="7.329" rx="1.763" transform="translate(1786.698 3445.608) rotate(180)" fill="#ffdf77"/>
        <rect id="Прямоугольник_18219" data-name="Прямоугольник 18219" width="27.482" height="7.329" rx="1.763" transform="translate(1793.11 3453.852) rotate(180)" fill="#ffdf77"/>
        <rect id="Прямоугольник_18221" data-name="Прямоугольник 18221" width="11.909" height="11.909" rx="4.468" transform="translate(1737.23 3400.72)" fill="#ffdf77" opacity="0.8"/>
        <rect id="Прямоугольник_18222" data-name="Прямоугольник 18222" width="11.909" height="11.909" rx="4.468" transform="translate(1719.825 3400.72)" fill="#ffdf77" opacity="0.8"/>
        <path id="Контур_11664" data-name="Контур 11664" d="M776.815,620.909h-3.721A4.1,4.1,0,0,1,769,616.815v-3.721A4.1,4.1,0,0,1,773.094,609h3.721a4.1,4.1,0,0,1,4.094,4.094v3.721A4.1,4.1,0,0,1,776.815,620.909Zm-3.721-9.161a1.347,1.347,0,0,0-1.346,1.346v3.721a1.347,1.347,0,0,0,1.346,1.346h3.721a1.347,1.347,0,0,0,1.346-1.346v-3.721a1.347,1.347,0,0,0-1.346-1.346Z" transform="translate(949.825 2809.125)" fill="#ffdf77"/>
        <path id="Контур_11665" data-name="Контур 11665" d="M795.815,620.909h-3.721A4.1,4.1,0,0,1,788,616.815v-3.721A4.1,4.1,0,0,1,792.094,609h3.721a4.1,4.1,0,0,1,4.094,4.094v3.721A4.1,4.1,0,0,1,795.815,620.909Zm-3.721-9.161a1.347,1.347,0,0,0-1.346,1.346v3.721a1.347,1.347,0,0,0,1.346,1.346h3.721a1.347,1.347,0,0,0,1.346-1.346v-3.721a1.347,1.347,0,0,0-1.346-1.346Z" transform="translate(948.23 2809.125)" fill="#ffdf77"/>
        <path id="Контур_11666" data-name="Контур 11666" d="M776.815,639.909h-3.721A4.1,4.1,0,0,1,769,635.815v-3.721A4.1,4.1,0,0,1,773.094,628h3.721a4.1,4.1,0,0,1,4.094,4.094v3.721A4.1,4.1,0,0,1,776.815,639.909Zm-3.721-9.161a1.347,1.347,0,0,0-1.346,1.346v3.721a1.347,1.347,0,0,0,1.346,1.346h3.721a1.347,1.347,0,0,0,1.346-1.346v-3.721a1.347,1.347,0,0,0-1.346-1.346Z" transform="translate(949.825 2807.531)" fill="#ffdf77"/>
        <path id="Контур_11667" data-name="Контур 11667" d="M795.815,639.909h-3.721A4.1,4.1,0,0,1,788,635.815v-3.721A4.1,4.1,0,0,1,792.094,628h3.721a4.1,4.1,0,0,1,4.094,4.094v3.721A4.1,4.1,0,0,1,795.815,639.909Zm-3.721-9.161a1.347,1.347,0,0,0-1.346,1.346v3.721a1.347,1.347,0,0,0,1.346,1.346h3.721a1.347,1.347,0,0,0,1.346-1.346v-3.721a1.347,1.347,0,0,0-1.346-1.346Z" transform="translate(948.23 2807.531)" fill="#ffdf77"/>
      </g>
      <g id="Сгруппировать_15797" data-name="Сгруппировать 15797" transform="translate(1599 3354)">
        <g id="Сгруппировать_15787" data-name="Сгруппировать 15787" transform="translate(50.384 82.447)">
          <path id="Контур_11659" data-name="Контур 11659" d="M842.569,639.993h-28.5A4.079,4.079,0,0,1,810,635.919v-2.845A4.078,4.078,0,0,1,814.074,629h28.5a4.078,4.078,0,0,1,4.074,4.074v2.845A4.078,4.078,0,0,1,842.569,639.993Zm-28.5-8.245a1.327,1.327,0,0,0-1.326,1.326v2.845a1.327,1.327,0,0,0,1.326,1.326h28.5a1.327,1.327,0,0,0,1.326-1.326v-2.845a1.327,1.327,0,0,0-1.326-1.326Z" transform="translate(-810 -629)" fill="#b611a9"/>
        </g>
        <g id="Сгруппировать_15788" data-name="Сгруппировать 15788" transform="translate(56.796 90.691)">
          <path id="Контур_11660" data-name="Контур 11660" d="M849.569,648.993h-28.5A4.079,4.079,0,0,1,817,644.919v-2.845A4.079,4.079,0,0,1,821.074,638h28.5a4.078,4.078,0,0,1,4.074,4.074v2.845A4.078,4.078,0,0,1,849.569,648.993Zm-28.5-8.245a1.327,1.327,0,0,0-1.326,1.326v2.845a1.327,1.327,0,0,0,1.326,1.326h28.5a1.327,1.327,0,0,0,1.326-1.326v-2.845a1.327,1.327,0,0,0-1.326-1.326Z" transform="translate(-817 -638)" fill="#b611a9"/>
        </g>
        <g id="Сгруппировать_15796" data-name="Сгруппировать 15796" transform="translate(16.449 0)">
          <path id="Контур_11668" data-name="Контур 11668" d="M846.493,622.611a1.373,1.373,0,0,1-1.061-2.246c.752-.916,1.479-1.87,2.16-2.832a1.374,1.374,0,1,1,2.245,1.583c-.718,1.019-1.486,2.026-2.281,2.995A1.373,1.373,0,0,1,846.493,622.611Zm5.134-7.57a1.375,1.375,0,0,1-1.2-2.037c.57-1.036,1.108-2.106,1.6-3.18a1.374,1.374,0,1,1,2.5,1.141c-.519,1.137-1.088,2.268-1.693,3.364A1.371,1.371,0,0,1,851.627,615.041Zm3.649-8.387a1.34,1.34,0,0,1-.428-.069,1.371,1.371,0,0,1-.877-1.733c.37-1.13.7-2.28.982-3.421a1.374,1.374,0,0,1,2.668.659c-.3,1.206-.647,2.424-1.04,3.618A1.373,1.373,0,0,1,855.276,606.654Zm2.032-8.914a1.35,1.35,0,0,1-.181-.012,1.374,1.374,0,0,1-1.183-1.542c.155-1.173.268-2.365.333-3.542a1.374,1.374,0,0,1,2.745.155c-.071,1.246-.19,2.506-.354,3.747A1.374,1.374,0,0,1,857.308,597.74Zm.357-9.137a1.374,1.374,0,0,1-1.371-1.3c-.061-1.175-.167-2.368-.315-3.547a1.374,1.374,0,0,1,2.726-.344c.157,1.246.268,2.507.333,3.749a1.375,1.375,0,0,1-1.3,1.444Zm-1.316-9.05a1.375,1.375,0,0,1-1.335-1.052c-.278-1.153-.6-2.306-.965-3.426a1.374,1.374,0,1,1,2.616-.843c.382,1.185.726,2.4,1.02,3.623a1.375,1.375,0,0,1-1.012,1.659A1.416,1.416,0,0,1,856.349,579.553Zm-2.965-8.652a1.372,1.372,0,0,1-1.253-.81c-.487-1.077-1.02-2.151-1.585-3.191a1.374,1.374,0,0,1,2.414-1.314c.6,1.1,1.162,2.235,1.675,3.376a1.372,1.372,0,0,1-.688,1.817A1.356,1.356,0,0,1,853.383,570.9Zm-4.518-7.954a1.373,1.373,0,0,1-1.128-.588c-.675-.967-1.4-1.925-2.145-2.844a1.374,1.374,0,1,1,2.133-1.734c.791.974,1.553,1.984,2.266,3.006a1.375,1.375,0,0,1-1.127,2.161Zm-5.9-6.989a1.371,1.371,0,0,1-.964-.395c-.846-.831-1.73-1.641-2.629-2.4a1.374,1.374,0,1,1,1.778-2.1c.951.807,1.885,1.661,2.778,2.539a1.375,1.375,0,0,1-.964,2.354Zm-68.632-.735a1.374,1.374,0,0,1-.944-2.374c.638-.6,1.305-1.2,1.985-1.776a1.374,1.374,0,0,1,1.778,2.1c-.642.546-1.273,1.111-1.876,1.68A1.373,1.373,0,0,1,774.33,555.224Zm6.309-5.048a1.375,1.375,0,0,1-.769-2.514c1.04-.7,2.115-1.37,3.2-1.989a1.375,1.375,0,1,1,1.363,2.387c-1.023.584-2.041,1.217-3.024,1.881A1.373,1.373,0,0,1,780.639,550.176Zm55.243-.006a1.374,1.374,0,0,1-.767-.234c-.983-.663-2-1.3-3.022-1.879a1.375,1.375,0,0,1,1.363-2.387c1.082.618,2.155,1.286,3.2,1.986a1.374,1.374,0,0,1-.77,2.514Zm-47.219-4.386a1.374,1.374,0,0,1-.545-2.635c1.15-.5,2.331-.956,3.511-1.364a1.374,1.374,0,0,1,.9,2.6c-1.116.386-2.232.82-3.32,1.289A1.36,1.36,0,0,1,788.663,545.783Zm39.2,0a1.361,1.361,0,0,1-.544-.113c-1.084-.468-2.2-.9-3.313-1.286a1.374,1.374,0,1,1,.9-2.6c1.18.408,2.359.866,3.5,1.361a1.374,1.374,0,0,1-.545,2.636Zm-8.692-2.829a1.374,1.374,0,0,1-.3-.033c-1.145-.258-2.323-.477-3.5-.653a1.373,1.373,0,1,1,.4-2.717c1.245.185,2.489.417,3.7.689a1.374,1.374,0,0,1-.3,2.714Zm-21.808,0a1.374,1.374,0,0,1-.3-2.714c1.218-.273,2.464-.5,3.7-.688a1.373,1.373,0,1,1,.4,2.717c-1.174.174-2.352.393-3.5.652A1.379,1.379,0,0,1,797.363,542.953Zm12.741-1.171h-.051c-1.182-.043-2.379-.044-3.563,0h-.051a1.374,1.374,0,0,1-.05-2.747c1.251-.047,2.518-.046,3.764,0a1.374,1.374,0,0,1-.049,2.747Z" transform="translate(-772.956 -538.999)" fill="#b611a9"/>
        </g>
      </g>
    </g>
    <g id="Сгруппировать_16297" data-name="Сгруппировать 16297" transform="translate(-34 6.567)">
      <g id="Сгруппировать_16296" data-name="Сгруппировать 16296" transform="translate(1862.961 3598.635)">
        <rect id="Прямоугольник_19465" data-name="Прямоугольник 19465" width="38.861" height="12.915" transform="translate(-136.419 399.028)" fill="#fff"/>
        <rect id="Прямоугольник_19466" data-name="Прямоугольник 19466" width="38.861" height="6.457" transform="translate(-136.419 399.028)" fill="#ffdf77"/>
        <rect id="Прямоугольник_19467" data-name="Прямоугольник 19467" width="78.951" height="49.148" rx="0.991" transform="translate(-155.791 349.562)" fill="#fff"/>
        <path id="Контур_27746" data-name="Контур 27746" d="M-79.671,340.168A1.835,1.835,0,0,1-77.836,342v36.3h-78.953V342a1.835,1.835,0,0,1,1.834-1.834Z" transform="translate(0.997 10.158)" fill="#fff"/>
        <rect id="Прямоугольник_19468" data-name="Прямоугольник 19468" width="53.421" height="57.781" transform="translate(-143.277 330.362)" fill="#fff"/>
        <rect id="Прямоугольник_19469" data-name="Прямоугольник 19469" width="53.421" height="9.979" transform="translate(-143.277 330.362)" fill="#ffdf77"/>
        <path id="Контур_27747" data-name="Контур 27747" d="M-89.977,413.627h-53.176v-3.7h5.09v-8.966h-16.2a3.7,3.7,0,0,1-3.7-3.7v-45.85a3.7,3.7,0,0,1,3.7-3.7h7.391v3.7h-7.391l0,35.1h9.384V328.231h57.122v58.283h9.386l0-35.1-7.728,0v-3.7h7.73a3.7,3.7,0,0,1,3.7,3.7v45.85a3.7,3.7,0,0,1-3.7,3.7H-95.491v8.966h5.514Zm-44.384-3.7h35.168v-8.966h-35.168Zm-19.9-19.709v7.045l75.891,0v-7.041Zm13.084-3.7h49.719V342.58h-49.719Zm0-47.636h49.719v-6.945h-49.719Zm18.423-1.436h-4.183v-3.7h4.183Zm-5.781,0h-4.183v-3.7h4.183Zm-5.779,0h-4.183v-3.7h4.183Z" transform="translate(0)" fill="#b611a9"/>
        <g id="Сгруппировать_16295" data-name="Сгруппировать 16295" transform="translate(-137.771 346.06)">
          <rect id="Прямоугольник_19470" data-name="Прямоугольник 19470" width="3.702" height="11.645" transform="translate(14.384 16.566) rotate(-45)" fill="#b611a9"/>
          <path id="Контур_27748" data-name="Контур 27748" d="M-136.653,353.941h-3.7v-9.614h9.614v3.7h-5.912Z" transform="translate(152.753 -332.363)" fill="#b611a9"/>
          <path id="Контур_27749" data-name="Контур 27749" d="M-132.989,369.1a15.627,15.627,0,0,1-11.4-6.843,15.557,15.557,0,0,1-2.371-11.744,15.56,15.56,0,0,1,6.628-9.982,15.576,15.576,0,0,1,11.748-2.371,15.566,15.566,0,0,1,9.982,6.63,15.656,15.656,0,0,1,2.523,10.824l-3.67-.494a11.936,11.936,0,0,0-1.925-8.265,11.879,11.879,0,0,0-7.622-5.062,11.883,11.883,0,0,0-8.968,1.81,11.875,11.875,0,0,0-5.062,7.62,11.873,11.873,0,0,0,1.81,8.97,11.922,11.922,0,0,0,8.7,5.221Z" transform="translate(147.053 -337.863)" fill="#b611a9"/>
          <rect id="Прямоугольник_19471" data-name="Прямоугольник 19471" width="7.882" height="3.702" transform="translate(34.397 6.394)" fill="#b611a9"/>
          <rect id="Прямоугольник_19472" data-name="Прямоугольник 19472" width="7.882" height="3.702" transform="translate(34.397 14.101)" fill="#b611a9"/>
          <rect id="Прямоугольник_19473" data-name="Прямоугольник 19473" width="12.812" height="3.703" transform="translate(29.467 21.808)" fill="#b611a9"/>
          <rect id="Прямоугольник_19474" data-name="Прямоугольник 19474" width="22.47" height="3.702" transform="translate(19.809 29.515)" fill="#b611a9"/>
        </g>
      </g>
    </g>
  </g>
</svg>
