<svg xmlns="http://www.w3.org/2000/svg" width="16" height="16" viewBox="0 0 16 16">
  <g id="Сгруппировать_16611" data-name="Сгруппировать 16611" transform="translate(-627.4 -787.203)">
    <g id="Прямоугольник_18014" data-name="Прямоугольник 18014" transform="translate(627.4 787.203)" fill="#fff" stroke="#cecece" stroke-width="1">
      <rect width="16" height="16" stroke="none"/>
      <rect x="0.5" y="0.5" width="15" height="15" fill="none"/>
    </g>
    <path id="Контур_11237" data-name="Контур 11237" d="M6.182,4.073V7.781a2.762,2.762,0,0,0,.5-.426.276.276,0,0,1,.491.208h0A3,3,0,0,1,6.334,9.07a2.05,2.05,0,0,1-1.372.689,1.223,1.223,0,0,1-1.22-1.22V4.832a2.761,2.761,0,0,0-.5.426.276.276,0,0,1-.491-.208h0A3,3,0,0,1,3.59,3.542a2.049,2.049,0,0,1,1.372-.689,1.223,1.223,0,0,1,1.22,1.22Z" transform="translate(630.658 790.548)" fill="#cecece" fill-rule="evenodd"/>
    <path id="Контур_11238" data-name="Контур 11238" d="M4.22,1.886a1.291,1.291,0,1,1-.913.378,1.287,1.287,0,0,1,.913-.378Z" transform="translate(631.086 788.317)" fill="#cecece" fill-rule="evenodd"/>
  </g>
</svg>
