<svg xmlns="http://www.w3.org/2000/svg" width="16.303" height="16.005" viewBox="0 0 16.303 16.005">
  <g id="Сгруппировать_14841" data-name="Сгруппировать 14841" transform="translate(-4.47 -3.25)">
    <path id="Контур_11213" data-name="Контур 11213" d="M20.454,12.9l-3.763-2.643V7.652l.35.245a.7.7,0,0,0,.805-1.155h0l-4.83-3.36a.683.683,0,0,0-.805,0L7.4,6.741A.7.7,0,1,0,8.2,7.9l.35-.245v2.608L4.773,12.9a.7.7,0,0,0,.805,1.155l1.138-.788V17.5a1.755,1.755,0,0,0,1.75,1.75h8.313a1.755,1.755,0,0,0,1.75-1.75V13.252l1.138.788a.7.7,0,0,0,.98-.175.671.671,0,0,0-.193-.963ZM9.936,6.671,12.613,4.8l2.678,1.873V9.279L13.016,7.687a.683.683,0,0,0-.805,0L9.936,9.279Zm3.535,11.183H11.756V16.42a.7.7,0,0,1,.7-.7h.315a.7.7,0,0,1,.7.7Zm3.658-.35a.351.351,0,0,1-.35.35H14.871V16.42a2.106,2.106,0,0,0-2.1-2.1h-.315a2.106,2.106,0,0,0-2.1,2.1v1.435H8.448a.351.351,0,0,1-.35-.35v-5.25l4.515-3.133,4.5,3.15Z" transform="translate(0 0)"/>
  </g>
</svg>
