<svg xmlns="http://www.w3.org/2000/svg" width="16" height="12.811" viewBox="0 0 16 12.811">
  <g id="Сгруппировать_14838" data-name="Сгруппировать 14838" transform="translate(-1312.849 -2211)">
    <path id="Контур_11144" data-name="Контур 11144" d="M588.85,533.428v-1.567a1.27,1.27,0,0,1,2.54,0v1.567q1.093.025,2.156.092v-5.072l-3.427-2.9-3.426,2.9v5.072Q587.756,533.452,588.85,533.428Zm1.412-6.271h.8v.8h-.8Zm0,1.088h.8v.8h-.8Zm-1.087-1.088h.8v.8h-.8Zm0,1.088h.8v.8h-.8Z" transform="translate(730.659 1690.005)" fill="#24002f" fill-rule="evenodd"/>
    <path id="Контур_11145" data-name="Контур 11145" d="M592.145,520.312a8,8,0,0,0-4.263-4.262,8,8,0,0,0-6.217,0,8,8,0,0,0-4.263,4.262,8,8,0,0,0,0,6.218,8.208,8.208,0,0,0,.981,1.687c.218-.026.443-.046.664-.07.411-.045.822-.09,1.243-.125v-4.237l-.55.466v-1.309l4.962-4.2,2.36,2v-.688h1.321v1.807l1.281,1.085v1.309l-.55-.466v4.237c.459.037.907.086,1.354.136.228.024.46.046.684.074a8.252,8.252,0,0,0,.992-1.7,8,8,0,0,0,0-6.218Z" transform="translate(736.075 1695.579)" fill="#24002f" fill-rule="evenodd"/>
  </g>
</svg>
