<svg xmlns="http://www.w3.org/2000/svg" width="19.879" height="16" viewBox="0 0 19.879 16">
  <path id="Контур_11135" data-name="Контур 11135" d="M18.941,969.362a.851.851,0,0,1,.447.151l9.212,7.273a.868.868,0,0,1,.159,1.053.753.753,0,0,1-1.053.091l-8.765-6.917-8.765,6.917a.745.745,0,0,1-1.053-.091.825.825,0,0,1,.159-1.053l3.356-2.652v-4.045a.727.727,0,0,1,.727-.727H15.3a.727.727,0,0,1,.727.727v1.371l2.462-1.947A.741.741,0,0,1,18.941,969.362Zm-4.364,1.455h-.485v2.174l.485-.386Zm10.182,5.644,1.455,1.151v7.023a.727.727,0,0,1-.727.727H21.122a.727.727,0,0,1-.727-.727v-2.667a1.455,1.455,0,0,0-2.909,0v2.667a.727.727,0,0,1-.727.727H12.4a.727.727,0,0,1-.727-.727v-7.023l1.455-1.151v7.447h2.909v-1.939a2.909,2.909,0,0,1,5.818,0v1.939h2.909Z" transform="translate(-9 -969.362)" fill="#24002f"/>
</svg>
