<svg xmlns="http://www.w3.org/2000/svg" xmlns:xlink="http://www.w3.org/1999/xlink">

	<symbol id="user">
		<g transform="translate(109.5 1116.9)">
			<path
				d="M41.286,49.364,39.846,48.7a5.439,5.439,0,0,1-7.528,0l-1.365.664A4.982,4.982,0,0,0,28,53.94v2.4a1.851,1.851,0,0,0,1.845,1.845H42.43a1.851,1.851,0,0,0,1.845-1.845v-2.4A5.077,5.077,0,0,0,41.286,49.364Z"
				transform="translate(-137 -1155.283)" fill="#fff" stroke="inherit" stroke-width="1" />
			<ellipse cx="4.096" cy="4.761" rx="4.096" ry="4.761" transform="translate(-104.977 -1116.4)" fill="inherit"
				stroke="inherit" stroke-width="1" />
		</g>
	</symbol>

	<symbol id="chat">
		<path id="noun_chat_3518669"
			d="M19.393,23.184A2.424,2.424,0,0,0,16.976,25.6v.967h-1.45a.477.477,0,0,0-.338.145l-2.562,2.562V27.051a.485.485,0,0,0-.483-.483H10.934A1.939,1.939,0,0,1,9,24.634v-5.8A1.939,1.939,0,0,1,10.934,16.9H23.985a1.939,1.939,0,0,1,1.934,1.934v4.35Zm7.976.967H19.393a1.454,1.454,0,0,0-1.45,1.45v3.867a1.454,1.454,0,0,0,1.45,1.45H23.26a.464.464,0,0,1,.29.1L26.16,32.9V31.426a.485.485,0,0,1,.483-.483h.725a1.454,1.454,0,0,0,1.45-1.45V25.625A1.46,1.46,0,0,0,27.369,24.151Z"
			transform="translate(-9 -16.9)" fill="#fff" />
	</symbol>

	<symbol id="phoner">
		<g id="noun_Phone_2290794" transform="translate(-0.036 0.313)">
			<path id="Контур_11104" data-name="Контур 11104"
				d="M7.671,2.336,5.58.258C3.943-1.369,2.4.891,1.215,1.975A4.075,4.075,0,0,0,.306,6.313,26.027,26.027,0,0,0,14.4,20.32a3.97,3.97,0,0,0,4.365-.9c1.182-1.175,3.365-2.711,1.728-4.338L18.4,13c-1.273-1.265-2.273-.452-3,.723a2.048,2.048,0,0,1-2.455.9,10.726,10.726,0,0,1-6.82-6.868,1.983,1.983,0,0,1,.818-2.44C8.126,4.686,9.035,3.692,7.671,2.336Z"
				transform="translate(0 0)" fill="#fff" fill-rule="evenodd" />
		</g>
	</symbol>

	<symbol id="mail">
		<g id="noun_Email_3693614" transform="translate(-2 -11)">
			<path id="Контур_11105" data-name="Контур 11105"
				d="M47.706,30.856a1.525,1.525,0,0,0,.111-.557V18.78L39.08,24.075Z" transform="translate(-22.96 -4.824)"
				fill="#fff" />
			<path id="Контур_11106" data-name="Контур 11106"
				d="M12.964,19.722a.762.762,0,0,0,.91,0l10.983-6.648v-.549A1.524,1.524,0,0,0,23.333,11H3.524A1.524,1.524,0,0,0,2,12.525V12.7Z"
				transform="translate(0)" fill="#fff" />
			<path id="Контур_11107" data-name="Контур 11107"
				d="M16.338,33.743l-1.143.686a1.462,1.462,0,0,1-.857.274,1.523,1.523,0,0,1-.9-.294l-1.078-.69-8.887,7a1.523,1.523,0,0,0,.964.351H24.243a1.523,1.523,0,0,0,.964-.351Z"
				transform="translate(-0.91 -14.069)" fill="#fff" />
			<path id="Контур_11108" data-name="Контур 11108" d="M2,17.83V29.712a1.525,1.525,0,0,0,.111.557l8.657-6.816Z"
				transform="translate(0 -4.236)" fill="#fff" />
		</g>
	</symbol>

	<symbol id="ssl">
		<g id="noun_ssl_certificate_2559992" data-name="noun_ssl certificate_2559992"
			transform="translate(-5.105 -22.895)">
			<path id="Контур_11477" data-name="Контур 11477"
				d="M25.144,74.595h-.125a2.635,2.635,0,0,0-1.377,4.882l1.935,1.186a.832.832,0,0,1,.395.7v.158a.827.827,0,0,1-.827.827h-.125a.827.827,0,0,1-.827-.827v-.049a.9.9,0,0,0-1.808,0v.049a2.638,2.638,0,0,0,2.635,2.635h.125a2.638,2.638,0,0,0,2.635-2.635v-.158a2.652,2.652,0,0,0-1.258-2.247l-1.935-1.186a.827.827,0,0,1,.432-1.531h.125a.827.827,0,0,1,.827.827v.421a.9.9,0,1,0,1.808,0V77.23A2.639,2.639,0,0,0,25.144,74.595Z"
				transform="translate(-11.029 -33.002)" fill="#fff" />
			<path id="Контур_11478" data-name="Контур 11478"
				d="M44.175,74.595h-.126a2.635,2.635,0,0,0-1.377,4.882l1.935,1.186a.832.832,0,0,1,.395.7v.158a.827.827,0,0,1-.827.827h-.126a.827.827,0,0,1-.827-.827v-.049a.9.9,0,1,0-1.808,0v.049a2.638,2.638,0,0,0,2.635,2.635h.125a2.638,2.638,0,0,0,2.635-2.635v-.158a2.652,2.652,0,0,0-1.258-2.247l-1.935-1.186a.827.827,0,0,1,.432-1.531h.125A.827.827,0,0,1,45,77.23v.421a.9.9,0,0,0,1.808,0V77.23A2.638,2.638,0,0,0,44.175,74.595Z"
				transform="translate(-23.177 -33.002)" fill="#fff" />
			<path id="Контур_11479" data-name="Контур 11479"
				d="M64.938,82.353H62.254V75.5a.9.9,0,1,0-1.808,0v7.757a.9.9,0,0,0,.9.9h3.587a.9.9,0,1,0,0-1.808Z"
				transform="translate(-35.326 -33.002)" fill="#fff" />
			<path id="Контур_11480" data-name="Контур 11480"
				d="M58.013,22.9H6.371A1.266,1.266,0,0,0,5.1,24.161V62.935A1.266,1.266,0,0,0,6.371,64.2H58.013a1.266,1.266,0,0,0,1.266-1.266V24.161A1.266,1.266,0,0,0,58.013,22.9Zm-1.266,2.532v4.5H7.637v-4.5ZM7.637,61.669V31.73H56.748V61.669Z"
				transform="translate(0)" fill="#fff" />
			<circle id="Эллипс_5" data-name="Эллипс 5" cx="1.1" cy="1.1" r="1.1" transform="translate(9.374 26.572)"
				fill="#fff" />
			<circle id="Эллипс_6" data-name="Эллипс 6" cx="1.1" cy="1.1" r="1.1" transform="translate(13.644 26.572)"
				fill="#fff" />
			<path id="Контур_11481" data-name="Контур 11481"
				d="M41.622,35.263a1.1,1.1,0,1,0-1.1-1.1A1.1,1.1,0,0,0,41.622,35.263Z" transform="translate(-22.608 -6.491)"
				fill="#fff" />
			<path id="Контур_11482" data-name="Контур 11482"
				d="M102.108,79.874l-3.96,4.382-2.2-1.768a.9.9,0,0,0-1.132,1.41l2.867,2.3a.9.9,0,0,0,1.237-.1l4.532-5.015a.9.9,0,0,0-1.341-1.212Z"
				transform="translate(-57.048 -36.181)" fill="#fff" />
			<path id="Контур_11483" data-name="Контур 11483"
				d="M93.976,75.3a11.563,11.563,0,0,1-3.037,1.525c-2.662-.827-7.4-4.049-7.4-8.434V60.132a11.443,11.443,0,0,0,7.406-3.227,11.442,11.442,0,0,0,7.406,3.227v3.94a3.885,3.885,0,0,1,1.808,0V59.258a.9.9,0,0,0-.9-.9,9.4,9.4,0,0,1-7.571-3.335.9.9,0,0,0-.736-.381.89.89,0,0,0-.739.378,9.4,9.4,0,0,1-7.573,3.338.9.9,0,0,0-.9.9v9.131c0,5.239,5.284,9.194,8.856,10.217a.9.9,0,0,0,.249.035.836.836,0,0,0,.109-.009.914.914,0,0,0,.109.009.9.9,0,0,0,.249-.035,12.152,12.152,0,0,0,2.681-1.176c0-.02-.006-.038-.006-.058V75.3Z"
				transform="translate(-48.912 -20.262)" fill="#fff" />
			<path id="Контур_11484" data-name="Контур 11484"
				d="M125.931,87.591h-.367V86.031a3.1,3.1,0,1,0-6.2,0v1.559h-.366a.9.9,0,0,0-.9.9v6.937a.9.9,0,0,0,.9.9h6.937a.9.9,0,0,0,.9-.9V88.495A.9.9,0,0,0,125.931,87.591Zm-4.762-1.559a1.294,1.294,0,1,1,2.587,0v1.559h-2.587Zm3.858,8.5H119.9V89.4h5.129v5.129Z"
				transform="translate(-72.122 -38.322)" fill="#fff" />
		</g>
	</symbol>

	<!-- Card_ico  -->
	<symbol id="duplex">
		<path id="Контур_11213" data-name="Контур 11213"
			d="M20.454,12.9l-3.763-2.643V7.652l.35.245a.7.7,0,0,0,.805-1.155h0l-4.83-3.36a.683.683,0,0,0-.805,0L7.4,6.741A.7.7,0,1,0,8.2,7.9l.35-.245v2.608L4.773,12.9a.7.7,0,0,0,.805,1.155l1.138-.788V17.5a1.755,1.755,0,0,0,1.75,1.75h8.313a1.755,1.755,0,0,0,1.75-1.75V13.252l1.138.788a.7.7,0,0,0,.98-.175.671.671,0,0,0-.193-.963ZM9.936,6.671,12.613,4.8l2.678,1.873V9.279L13.016,7.687a.683.683,0,0,0-.805,0L9.936,9.279Zm3.535,11.183H11.756V16.42a.7.7,0,0,1,.7-.7h.315a.7.7,0,0,1,.7.7Zm3.658-.35a.351.351,0,0,1-.35.35H14.871V16.42a2.106,2.106,0,0,0-2.1-2.1h-.315a2.106,2.106,0,0,0-2.1,2.1v1.435H8.448a.351.351,0,0,1-.35-.35v-5.25l4.515-3.133,4.5,3.15Z"
			transform="translate(-4.47 -3.25)" />
	</symbol>

	<symbol id="rooms">
		<path id="Контур_11138" data-name="Контур 11138"
			d="M31.178,4.293,24.629,2.505a.506.506,0,0,0-.671.422V4.377H20.013a.476.476,0,0,0-.513.439V16.15a.477.477,0,0,0,.513.439h3.925v1.451a.5.5,0,0,0,.671.422l6.529-1.771a.447.447,0,0,0,.355-.422V4.715A.367.367,0,0,0,31.178,4.293ZM26.148,9.96a.546.546,0,1,1-.631.54A.583.583,0,0,1,26.148,9.96ZM20.6,15.678V5.322h3.353V15.661H20.6Z"
			transform="translate(-19.5 -2.486)" fill="inherit" />
	</symbol>

	<symbol id="sqm">
		<path id="Контур_11136" data-name="Контур 11136"
			d="M12.8,6.32,16,3.2,12.8,0,11.68,1.12,12.96,2.4H2.4V12.96L1.12,11.68,0,12.8,3.2,16l3.12-3.2L5.2,11.68,4,12.96V4h8.96L11.68,5.2Z"
			fill="inherit" />
	</symbol>

	<symbol id="exlusive">
		<g id="Сгруппировать_14838" data-name="Сгруппировать 14838" transform="translate(-1312.849 -2211)">
			<path id="Контур_11144" data-name="Контур 11144"
				d="M588.85,533.428v-1.567a1.27,1.27,0,0,1,2.54,0v1.567q1.093.025,2.156.092v-5.072l-3.427-2.9-3.426,2.9v5.072Q587.756,533.452,588.85,533.428Zm1.412-6.271h.8v.8h-.8Zm0,1.088h.8v.8h-.8Zm-1.087-1.088h.8v.8h-.8Zm0,1.088h.8v.8h-.8Z"
				transform="translate(730.659 1690.005)" fill="inherit" fill-rule="evenodd" />
			<path id="Контур_11145" data-name="Контур 11145"
				d="M592.145,520.312a8,8,0,0,0-4.263-4.262,8,8,0,0,0-6.217,0,8,8,0,0,0-4.263,4.262,8,8,0,0,0,0,6.218,8.208,8.208,0,0,0,.981,1.687c.218-.026.443-.046.664-.07.411-.045.822-.09,1.243-.125v-4.237l-.55.466v-1.309l4.962-4.2,2.36,2v-.688h1.321v1.807l1.281,1.085v1.309l-.55-.466v4.237c.459.037.907.086,1.354.136.228.024.46.046.684.074a8.252,8.252,0,0,0,.992-1.7,8,8,0,0,0,0-6.218Z"
				transform="translate(736.075 1695.579)" fill="inherit" fill-rule="evenodd" />
		</g>
	</symbol>

	<symbol id="popular">
		<path id="Контур_11134" data-name="Контур 11134" d="M5.959,10.332A.3.3,0,0,1,6.123,9.8l1.4-.109.528-1.311a.291.291,0,0,1,.546,0L9.127,9.7l1.4.109a.3.3,0,0,1,.164.528l-1.074.91.346,1.365a.3.3,0,0,1-.437.328l-1.183-.746-1.2.746a.294.294,0,0,1-.437-.328l.346-1.365ZM1.7,13.627V7.893A1.892,1.892,0,0,1,3.593,6h9.465a1.892,1.892,0,0,1,1.893,1.893v5.734a1.892,1.892,0,0,1-1.893,1.893H6.578L4.43,17.686a.7.7,0,0,1-.491.2.737.737,0,0,1-.491-.2.7.7,0,0,1-.218-.528V15.465A1.874,1.874,0,0,1,1.7,13.627Zm1.329,0a.587.587,0,0,0,.582.582h.947V15.7L6.05,14.209h7.044a.587.587,0,0,0,.582-.582V7.893a.587.587,0,0,0-.582-.582H3.629a.587.587,0,0,0-.582.582v5.734Zm16.255-1.6a1.892,1.892,0,0,0-1.893-1.893H16.244v1.329h1.147a.587.587,0,0,1,.582.582v5.734a.587.587,0,0,1-.582.582h-.947v1.474l-1.493-1.493H7.907a.587.587,0,0,1-.582-.582v-.983H7.106L6.014,17.868a1.9,1.9,0,0,0,1.893,1.784h6.5L16.553,21.8a.721.721,0,0,0,1.22-.51V19.6a1.911,1.911,0,0,0,1.511-1.857Z" transform="translate(-1.7 -6)" fill="inherit"/>
	</symbol>

	<symbol id="price">
		<path id="Контур_27780" data-name="Контур 27780" d="M21.424,9.19h-1.3V3.444a.942.942,0,0,0-.944-.944H11.4a.942.942,0,0,0-.944.944V9.19h-1.3a.893.893,0,0,0-.691,1.466L14.6,18.171a.891.891,0,0,0,1.382,0l6.134-7.516A.9.9,0,0,0,21.424,9.19ZM13.588,6.14a.893.893,0,1,1-.893.893A.888.888,0,0,1,13.588,6.14Zm.253,4.8a.548.548,0,0,1-.775-.775l3.674-3.674a.581.581,0,0,1,.388-.169.512.512,0,0,1,.388.169.539.539,0,0,1,0,.775Zm3.151.388a.893.893,0,1,1,.893-.893A.888.888,0,0,1,16.992,11.33Z" transform="translate(-8.256 -2.5)" fill="inherit"/>
	</symbol>

</svg>

