<svg xmlns="http://www.w3.org/2000/svg" xmlns:xlink="http://www.w3.org/1999/xlink">
    <symbol id="search">
        <g>
            <path d="M29.669,49.1A2.286,2.286,0,1,0,32.9,52.331l4.717-4.717a1.219,1.219,0,0,1,1.361-.194s-.057-.014.311.153a9.707,9.707,0,1,0-4.857-4.85c.165.364.148.3.148.3a1.213,1.213,0,0,1-.2,1.357Zm13.616-4.955a5.429,5.429,0,1,1,5.429-5.429A5.429,5.429,0,0,1,43.286,44.143Z" transform="translate(-29 -29)" fill="inherit"/>
        </g>
    </symbol>
    <symbol id="handshake">
        <path d="M34.818,35.031l-11.05-13.36a.909.909,0,0,0-1.14-.215l-5.083,2.822a3.744,3.744,0,0,1-3.312.163,1.125,1.125,0,0,1-.311-1.863l5.968-4.5a5.93,5.93,0,0,1,5.683-.817l9.5,3.6a5.438,5.438,0,0,0,1.9.357h5.657a.823.823,0,0,1,.82.822V33.581a.823.823,0,0,1-.825.822H36.485a1.3,1.3,0,0,0-.812.288l-.471.379a.281.281,0,0,1-.384-.039ZM30.34,37.965l.151.146a1.867,1.867,0,0,0,2.241.288,1.811,1.811,0,0,0,.432-2.766L32.05,34.3l-9.008-10.93a.3.3,0,0,0-.376-.069l-4.318,2.4a5.412,5.412,0,0,1-4.513.336,2.888,2.888,0,0,1-1.762-1.721,3.228,3.228,0,0,1,.289-2.473.43.43,0,0,0-.358-.619H2.812A.823.823,0,0,0,2,22.041V33.581a.823.823,0,0,0,.825.822H7.933l1.244-1.518A3.183,3.183,0,0,1,14.7,34.037a3.168,3.168,0,0,1,2.211,2.185,3.172,3.172,0,0,1,1.857,1.441,3.208,3.208,0,0,1,1.775.9A3.268,3.268,0,0,1,21,42.507l-.186.323a1.817,1.817,0,0,0,2.837-1.819.039.039,0,0,1,.065-.039l.138.133a1.884,1.884,0,0,0,2.362.237,1.812,1.812,0,0,0,.747-1.832.039.039,0,0,1,.065-.039l.138.129a1.884,1.884,0,0,0,2.362.237A1.808,1.808,0,0,0,30.276,38a.039.039,0,0,1,.065-.039ZM12,39.457l.151.116a1.542,1.542,0,0,0,1.654.159.078.078,0,0,1,.117.077,1.537,1.537,0,0,0,.579,1.372l.1.082a1.555,1.555,0,0,0,1.671.155.091.091,0,0,1,.13.065,1.543,1.543,0,0,0,.574.968l.065.052a1.571,1.571,0,0,0,2.328-.456l.229-.4a1.6,1.6,0,0,0-.272-1.987,1.564,1.564,0,0,0-1.693-.267.043.043,0,0,1-.065-.043,1.541,1.541,0,0,0-2.1-1.518c-.229.043-.181-.159-.181-.159a1.535,1.535,0,0,0-2.159-1.923c-.173.022-.151-.133-.151-.133a1.519,1.519,0,0,0-.535-2.056,1.593,1.593,0,0,0-2.03.4L9.2,35.444a1.523,1.523,0,0,0,.242,2.151l.186.142a1.533,1.533,0,0,0,1.727.12.073.073,0,0,1,.108.077A1.524,1.524,0,0,0,12,39.457Z" transform="translate(-2 -16.876)" fill="inherit"/>
    </symbol>
    <symbol id="approve">
        <path d="M32.111,17.095l-1.9-3,1.128-3.367a1.018,1.018,0,0,0-.457-1.2L27.8,7.749l-.566-3.506a1.022,1.022,0,0,0-.965-.855l-3.55-.139L20.592.407A1.016,1.016,0,0,0,19.341.1L16.134,1.624,12.926.1a1.021,1.021,0,0,0-1.251.309L9.546,3.249,6,3.388a1.018,1.018,0,0,0-.964.854L4.466,7.748,1.389,9.522a1.018,1.018,0,0,0-.458,1.2l1.128,3.367-1.9,3a1.019,1.019,0,0,0,.157,1.28l2.563,2.458-.288,3.538a1.019,1.019,0,0,0,.731,1.062l3.412.983,1.389,3.269a1.014,1.014,0,0,0,1.141.6l3.481-.714,2.747,2.25a1.018,1.018,0,0,0,1.29,0l2.747-2.25,3.481.714a1.016,1.016,0,0,0,1.141-.6l1.389-3.269,3.412-.983a1.018,1.018,0,0,0,.731-1.062l-.288-3.538,2.563-2.458A1.019,1.019,0,0,0,32.111,17.095Zm-8.618-4.9L16.367,22.873a1.4,1.4,0,0,1-1.1.665,1.783,1.783,0,0,1-1.169-.527L8.866,17.7a.941.941,0,0,1,0-1.315l1.291-1.315a.91.91,0,0,1,1.291,0l3.4,3.458,5.614-8.411a.906.906,0,0,1,1.27-.245l1.514,1.04a.94.94,0,0,1,.243,1.29Z" transform="translate(0 0)" fill="inherit"/>
    </symbol>
    <symbol id="confirmation">
        <path d="M32.278,8.3H5.809A3.324,3.324,0,0,0,2.5,11.6V27.041a3.324,3.324,0,0,0,3.309,3.3H9.64v5.136a1.7,1.7,0,0,0,1.045,1.6,1.9,1.9,0,0,0,.766.174,1.8,1.8,0,0,0,1.149-.416l7.662-6.49H32.278a3.324,3.324,0,0,0,3.309-3.3V11.6A3.324,3.324,0,0,0,32.278,8.3Zm-22.6,5.275a2.055,2.055,0,0,1,2.055,2.048A2.033,2.033,0,0,1,9.675,17.67,2.055,2.055,0,0,1,7.62,15.623,2.078,2.078,0,0,1,9.675,13.575Zm.07,11.036a1.157,1.157,0,0,1-.871.347A1.377,1.377,0,0,1,8,24.611a1.149,1.149,0,0,1-.348-.868A1.367,1.367,0,0,1,8,22.876l8.951-8.919a1.157,1.157,0,0,1,.871-.347,1.377,1.377,0,0,1,.871.347,1.149,1.149,0,0,1,.348.868,1.367,1.367,0,0,1-.348.868Zm7.279.382a2.048,2.048,0,1,1,0-4.1,2.078,2.078,0,0,1,2.055,2.048A2.033,2.033,0,0,1,17.023,24.993Zm9.09-.382a.535.535,0,0,1-.522.521H22.352a.535.535,0,0,1-.522-.521v-1.6a.535.535,0,0,1,.522-.521h3.239a.535.535,0,0,1,.522.521ZM27.924,20.1a.535.535,0,0,1-.522.521h-5.05a.535.535,0,0,1-.522-.521V18.5a.535.535,0,0,1,.522-.521H27.4a.535.535,0,0,1,.522.521Zm2.542-4.546a.535.535,0,0,1-.522.521H22.352a.535.535,0,0,1-.522-.521v-1.6a.535.535,0,0,1,.522-.521H29.91a.535.535,0,0,1,.522.521v1.6Z" transform="translate(-2.5 -8.3)" fill="inherit"/>
    </symbol>
    <symbol id="pending-offers">
        <path d="M47.8,40.881a1.445,1.445,0,0,1-1.888.763l-5.875-2.48a1.425,1.425,0,0,1-.858-1.316v-7.9a1.43,1.43,0,0,1,2.861,0v6.943l5,2.117A1.43,1.43,0,0,1,47.8,40.881Z" transform="translate(-27.239 -21.394)" fill="inherit"/>
        <path d="M23.922,8.657A14.619,14.619,0,0,1,33.4,17.23l.458-.875a1.432,1.432,0,0,1,2.537,1.33l-2.136,4.068a1.424,1.424,0,0,1-1.6.722.935.935,0,0,1-.324-.114l-4.12-2.148a1.416,1.416,0,0,1-.61-1.92,1.448,1.448,0,0,1,1.927-.608l1.24.646a11.741,11.741,0,1,0,.362,7.679,1.424,1.424,0,0,1,1.373-1.026,1.454,1.454,0,0,1,.4.057,1.417,1.417,0,0,1,.973,1.768,14.693,14.693,0,0,1-14.1,10.53,14.909,14.909,0,0,1-4.139-.589,14.644,14.644,0,0,1,4.14-28.7A14.363,14.363,0,0,1,23.922,8.657Z" transform="translate(-5.095 -8.049)" fill="inherit"/>
    </symbol>
    <symbol id="price-drop">
        <path d="M21.424,9.19h-1.3V3.444a.942.942,0,0,0-.944-.944H11.4a.942.942,0,0,0-.944.944V9.19h-1.3a.893.893,0,0,0-.691,1.466L14.6,18.171a.891.891,0,0,0,1.382,0l6.134-7.516A.9.9,0,0,0,21.424,9.19ZM13.588,6.14a.893.893,0,1,1-.893.893A.888.888,0,0,1,13.588,6.14Zm.253,4.8a.548.548,0,0,1-.775-.775l3.674-3.674a.581.581,0,0,1,.388-.169.512.512,0,0,1,.388.169.539.539,0,0,1,0,.775Zm3.151.388a.893.893,0,1,1,.893-.893A.888.888,0,0,1,16.992,11.33Z" transform="translate(-8.256 -2.5)" fill="inherit"/>
    </symbol>
    <symbol id="popular-property">
        <path d="M5.959,10.332A.3.3,0,0,1,6.123,9.8l1.4-.109.528-1.311a.291.291,0,0,1,.546,0L9.127,9.7l1.4.109a.3.3,0,0,1,.164.528l-1.074.91.346,1.365a.3.3,0,0,1-.437.328l-1.183-.746-1.2.746a.294.294,0,0,1-.437-.328l.346-1.365ZM1.7,13.627V7.893A1.892,1.892,0,0,1,3.593,6h9.465a1.892,1.892,0,0,1,1.893,1.893v5.734a1.892,1.892,0,0,1-1.893,1.893H6.578L4.43,17.686a.7.7,0,0,1-.491.2.737.737,0,0,1-.491-.2.7.7,0,0,1-.218-.528V15.465A1.874,1.874,0,0,1,1.7,13.627Zm1.329,0a.587.587,0,0,0,.582.582h.947V15.7L6.05,14.209h7.044a.587.587,0,0,0,.582-.582V7.893a.587.587,0,0,0-.582-.582H3.629a.587.587,0,0,0-.582.582v5.734Zm16.255-1.6a1.892,1.892,0,0,0-1.893-1.893H16.244v1.329h1.147a.587.587,0,0,1,.582.582v5.734a.587.587,0,0,1-.582.582h-.947v1.474l-1.493-1.493H7.907a.587.587,0,0,1-.582-.582v-.983H7.106L6.014,17.868a1.9,1.9,0,0,0,1.893,1.784h6.5L16.553,21.8a.721.721,0,0,0,1.22-.51V19.6a1.911,1.911,0,0,0,1.511-1.857Z" transform="translate(-1.7 -6)" fill="inherit"/>
    </symbol> 
    <symbol id="arrow">
         <path id="Icon" d="M4,11H16.2L10.6,5.4,12,4l8,8-8,8-1.4-1.4L16.2,13H4Z" transform="translate(-4 -4)" fill="inherit"/>
    </symbol>
    <symbol id="filter">
        <g transform="translate(33.362 -0.799) rotate(90)">
            <g transform="translate(0.799 17.362)">
                <g transform="translate(1.503 5.631)">
                    <g>
                    <path d="M114.985,374.622v-7.678c0-.354,0-.706,0-1.06v-.015a.841.841,0,0,0-.236-.572.811.811,0,0,0-1.144,0,.838.838,0,0,0-.236.572v7.678c0,.354,0,.706,0,1.06v.015a.841.841,0,0,0,.236.572.811.811,0,0,0,1.144,0,.852.852,0,0,0,.236-.572Z" transform="translate(-113.367 -365.062)" fill="inherit"/>
                    </g>
                </g>
                <g transform="translate(1.505 0)">
                    <g>
                    <path d="M115.116,20.782V18.17a.841.841,0,0,0-.236-.572.811.811,0,0,0-1.144,0,.838.838,0,0,0-.236.572v2.611a.841.841,0,0,0,.236.572.811.811,0,0,0,1.144,0,.849.849,0,0,0,.236-.572Z" transform="translate(-113.5 -17.362)" fill="inherit"/>
                    </g>
                </g>
                <g transform="translate(0 2.613)">
                    <g>
                    <path d="M23.394,181.211a1.7,1.7,0,0,1-.013.2l.029-.215a1.6,1.6,0,0,1-.1.378c.027-.065.055-.129.081-.192a1.58,1.58,0,0,1-.192.331l.126-.163a1.58,1.58,0,0,1-.284.284l.163-.126a1.655,1.655,0,0,1-.331.192l.192-.081a1.522,1.522,0,0,1-.378.1l.215-.029a1.537,1.537,0,0,1-.4,0l.215.029a1.6,1.6,0,0,1-.378-.1l.192.081a1.581,1.581,0,0,1-.331-.192l.163.126a1.58,1.58,0,0,1-.284-.284l.126.163a1.654,1.654,0,0,1-.192-.331c.027.065.055.129.081.192a1.522,1.522,0,0,1-.1-.378l.029.215a1.537,1.537,0,0,1,0-.4l-.029.215a1.6,1.6,0,0,1,.1-.378c-.027.065-.055.129-.081.192a1.581,1.581,0,0,1,.192-.331l-.126.163a1.579,1.579,0,0,1,.284-.284l-.163.126a1.654,1.654,0,0,1,.331-.192l-.192.081a1.522,1.522,0,0,1,.378-.1l-.215.029a1.538,1.538,0,0,1,.4,0l-.215-.029a1.6,1.6,0,0,1,.378.1l-.192-.081a1.58,1.58,0,0,1,.331.192l-.163-.126a1.579,1.579,0,0,1,.284.284l-.126-.163a1.655,1.655,0,0,1,.192.331c-.027-.065-.055-.129-.081-.192a1.522,1.522,0,0,1,.1.378l-.029-.215a1.7,1.7,0,0,1,.013.2.841.841,0,0,0,.236.572.811.811,0,0,0,1.144,0,.835.835,0,0,0,.236-.572,2.259,2.259,0,0,0-.393-1.285,3.172,3.172,0,0,0-.262-.326,2.687,2.687,0,0,0-.338-.281,2.3,2.3,0,0,0-3.061.377,3.014,3.014,0,0,0-.242.328,2.477,2.477,0,0,0-.183.393,2.3,2.3,0,0,0,.178,1.973,2.25,2.25,0,0,0,.962.889,3.1,3.1,0,0,0,.4.157,2.847,2.847,0,0,0,.452.078,2.262,2.262,0,0,0,.684-.045,2.115,2.115,0,0,0,.674-.267,2.151,2.151,0,0,0,.548-.456,2.77,2.77,0,0,0,.271-.372,2.685,2.685,0,0,0,.183-.406,2.18,2.18,0,0,0,.129-.755.831.831,0,0,0-.236-.572.808.808,0,0,0-1.378.57Z" transform="translate(-20.387 -178.899)" fill="inherit"/>
                    </g>
                </g>
                <g transform="translate(7.142 12.095)">
                    <g>
                    <path d="M463.616,768.159V765.87a.841.841,0,0,0-.236-.572.811.811,0,0,0-1.144,0,.838.838,0,0,0-.236.572v2.288a.841.841,0,0,0,.236.572.812.812,0,0,0,1.144,0,.852.852,0,0,0,.236-.572Z" transform="translate(-462 -765.062)" fill="inherit"/>
                    </g>
                </g>
                <g transform="translate(7.14 0.002)">
                    <g>
                    <path d="M463.485,27.344V19.388c0-.368,0-.737,0-1.1V18.27a.841.841,0,0,0-.236-.572.812.812,0,0,0-1.144,0,.838.838,0,0,0-.236.572v7.955c0,.368,0,.737,0,1.1v.015a.841.841,0,0,0,.236.572.812.812,0,0,0,1.144,0,.849.849,0,0,0,.236-.572Z" transform="translate(-461.867 -17.462)" fill="inherit"/>
                    </g>
                </g>
                <g transform="translate(5.638 9.086)">
                    <g>
                    <path d="M371.894,581.211a1.7,1.7,0,0,1-.013.2l.029-.215a1.6,1.6,0,0,1-.1.378c.027-.065.055-.129.081-.192a1.578,1.578,0,0,1-.192.331l.126-.163a1.579,1.579,0,0,1-.284.284l.163-.126a1.65,1.65,0,0,1-.331.192l.192-.081a1.526,1.526,0,0,1-.378.1l.215-.029a1.538,1.538,0,0,1-.4,0l.215.029a1.6,1.6,0,0,1-.378-.1l.192.081a1.578,1.578,0,0,1-.331-.192l.163.126a1.578,1.578,0,0,1-.284-.284l.126.163a1.653,1.653,0,0,1-.192-.331c.027.065.055.129.081.192a1.523,1.523,0,0,1-.1-.378l.029.215a1.538,1.538,0,0,1,0-.4l-.029.215a1.594,1.594,0,0,1,.1-.378c-.027.065-.055.129-.081.192a1.581,1.581,0,0,1,.192-.331l-.126.163a1.578,1.578,0,0,1,.284-.284l-.163.126a1.653,1.653,0,0,1,.331-.192l-.192.081a1.521,1.521,0,0,1,.378-.1l-.215.029a1.533,1.533,0,0,1,.4,0l-.215-.029a1.6,1.6,0,0,1,.378.1l-.192-.081a1.581,1.581,0,0,1,.331.192l-.163-.126a1.579,1.579,0,0,1,.284.284l-.126-.163a1.656,1.656,0,0,1,.192.331c-.027-.065-.055-.129-.081-.192a1.522,1.522,0,0,1,.1.378l-.029-.215a1.7,1.7,0,0,1,.013.2.841.841,0,0,0,.236.572.811.811,0,0,0,1.144,0,.835.835,0,0,0,.236-.572,2.259,2.259,0,0,0-.393-1.285,3.172,3.172,0,0,0-.262-.326,2.687,2.687,0,0,0-.338-.281,2.3,2.3,0,0,0-3.061.376,3.021,3.021,0,0,0-.242.328,2.479,2.479,0,0,0-.183.393,2.3,2.3,0,0,0,.178,1.973,2.249,2.249,0,0,0,.961.889,3.1,3.1,0,0,0,.4.157,2.855,2.855,0,0,0,.452.078,2.263,2.263,0,0,0,.684-.045,2.114,2.114,0,0,0,.674-.267,2.154,2.154,0,0,0,.548-.456,2.78,2.78,0,0,0,.271-.372,2.688,2.688,0,0,0,.183-.406,2.181,2.181,0,0,0,.129-.755.831.831,0,0,0-.236-.572.808.808,0,0,0-1.378.57Z" transform="translate(-368.887 -578.899)" fill="inherit"/>
                    </g>
                </g>
                <g transform="translate(12.778 8.703)">
                    <g>
                    <path d="M812.029,561.65v-4.979c0-.231,0-.462,0-.692v-.01a.841.841,0,0,0-.236-.572.811.811,0,0,0-1.144,0,.838.838,0,0,0-.236.572v4.979c0,.231,0,.462,0,.692v.01a.841.841,0,0,0,.236.572.811.811,0,0,0,1.144,0,.852.852,0,0,0,.236-.572Z" transform="translate(-810.411 -555.162)" fill="inherit"/>
                    </g>
                </g>
                <g transform="translate(12.778 0.002)">
                    <g>
                    <path d="M812.029,23.95V18.972c0-.231,0-.462,0-.692v-.01a.841.841,0,0,0-.236-.572.811.811,0,0,0-1.144,0,.838.838,0,0,0-.236.572v4.979c0,.231,0,.462,0,.692v.01a.841.841,0,0,0,.236.572.811.811,0,0,0,1.144,0,.849.849,0,0,0,.236-.572Z" transform="translate(-810.411 -17.462)" fill="inherit"/>
                    </g>
                </g>
                <g transform="translate(11.275 5.687)">
                    <g>
                    <path d="M720.394,371.211a1.7,1.7,0,0,1-.013.2l.029-.215a1.592,1.592,0,0,1-.1.378c.028-.065.055-.129.081-.192a1.58,1.58,0,0,1-.192.331l.126-.163a1.58,1.58,0,0,1-.284.284l.163-.126a1.654,1.654,0,0,1-.331.192l.192-.081a1.524,1.524,0,0,1-.378.1l.215-.029a1.538,1.538,0,0,1-.4,0l.215.029a1.6,1.6,0,0,1-.378-.1l.192.081a1.581,1.581,0,0,1-.331-.192l.163.126a1.58,1.58,0,0,1-.284-.284l.126.163a1.65,1.65,0,0,1-.192-.331c.027.065.055.129.081.192a1.52,1.52,0,0,1-.1-.378l.029.215a1.533,1.533,0,0,1,0-.4l-.029.215a1.6,1.6,0,0,1,.1-.378c-.027.065-.055.129-.081.192a1.578,1.578,0,0,1,.192-.331l-.126.163a1.582,1.582,0,0,1,.284-.284l-.163.126a1.656,1.656,0,0,1,.331-.192l-.192.081a1.524,1.524,0,0,1,.378-.1l-.215.029a1.538,1.538,0,0,1,.4,0l-.215-.029a1.6,1.6,0,0,1,.378.1l-.192-.081a1.578,1.578,0,0,1,.331.192l-.163-.126a1.582,1.582,0,0,1,.284.284l-.126-.163a1.653,1.653,0,0,1,.192.331c-.027-.065-.055-.129-.081-.192a1.521,1.521,0,0,1,.1.378l-.029-.215a1.7,1.7,0,0,1,.013.2.841.841,0,0,0,.236.572.811.811,0,0,0,1.144,0,.835.835,0,0,0,.236-.572,2.259,2.259,0,0,0-.393-1.285,3.172,3.172,0,0,0-.262-.326,2.687,2.687,0,0,0-.338-.281,2.3,2.3,0,0,0-3.061.377,3.018,3.018,0,0,0-.242.328,2.477,2.477,0,0,0-.183.393,2.3,2.3,0,0,0,.178,1.973,2.25,2.25,0,0,0,.961.889,3.1,3.1,0,0,0,.4.157,2.85,2.85,0,0,0,.452.078,2.264,2.264,0,0,0,.684-.045,2.114,2.114,0,0,0,.674-.267,2.15,2.15,0,0,0,.548-.456,2.764,2.764,0,0,0,.271-.372,2.682,2.682,0,0,0,.183-.406,2.179,2.179,0,0,0,.129-.755.831.831,0,0,0-.236-.572.808.808,0,0,0-1.378.57Z" transform="translate(-717.387 -368.899)" fill="inherit"/>
                    </g>
                </g>
            </g>
        </g>
    </symbol>                    
</svg>