<svg xmlns="http://www.w3.org/2000/svg" xmlns:xlink="http://www.w3.org/1999/xlink">

	<symbol id="user">
		<g transform="translate(109.5 1116.9)">
			<path
				d="M41.286,49.364,39.846,48.7a5.439,5.439,0,0,1-7.528,0l-1.365.664A4.982,4.982,0,0,0,28,53.94v2.4a1.851,1.851,0,0,0,1.845,1.845H42.43a1.851,1.851,0,0,0,1.845-1.845v-2.4A5.077,5.077,0,0,0,41.286,49.364Z"
				transform="translate(-137 -1155.283)" fill="#fff" stroke="inherit" stroke-width="1" />
			<ellipse cx="4.096" cy="4.761" rx="4.096" ry="4.761" transform="translate(-104.977 -1116.4)" fill="inherit"
				stroke="inherit" stroke-width="1" />
		</g>
	</symbol>

	<symbol id="chat">
		<path id="noun_chat_3518669"
			d="M19.393,23.184A2.424,2.424,0,0,0,16.976,25.6v.967h-1.45a.477.477,0,0,0-.338.145l-2.562,2.562V27.051a.485.485,0,0,0-.483-.483H10.934A1.939,1.939,0,0,1,9,24.634v-5.8A1.939,1.939,0,0,1,10.934,16.9H23.985a1.939,1.939,0,0,1,1.934,1.934v4.35Zm7.976.967H19.393a1.454,1.454,0,0,0-1.45,1.45v3.867a1.454,1.454,0,0,0,1.45,1.45H23.26a.464.464,0,0,1,.29.1L26.16,32.9V31.426a.485.485,0,0,1,.483-.483h.725a1.454,1.454,0,0,0,1.45-1.45V25.625A1.46,1.46,0,0,0,27.369,24.151Z"
			transform="translate(-9 -16.9)" fill="#fff" />
	</symbol>

	<symbol id="phoner">
		<g id="noun_Phone_2290794" transform="translate(-0.036 0.313)">
			<path id="Контур_11104" data-name="Контур 11104"
				d="M7.671,2.336,5.58.258C3.943-1.369,2.4.891,1.215,1.975A4.075,4.075,0,0,0,.306,6.313,26.027,26.027,0,0,0,14.4,20.32a3.97,3.97,0,0,0,4.365-.9c1.182-1.175,3.365-2.711,1.728-4.338L18.4,13c-1.273-1.265-2.273-.452-3,.723a2.048,2.048,0,0,1-2.455.9,10.726,10.726,0,0,1-6.82-6.868,1.983,1.983,0,0,1,.818-2.44C8.126,4.686,9.035,3.692,7.671,2.336Z"
				transform="translate(0 0)" fill="#fff" fill-rule="evenodd" />
		</g>
	</symbol>

	<symbol id="mail">
		<g id="noun_Email_3693614" transform="translate(-2 -11)">
			<path id="Контур_11105" data-name="Контур 11105"
				d="M47.706,30.856a1.525,1.525,0,0,0,.111-.557V18.78L39.08,24.075Z" transform="translate(-22.96 -4.824)"
				fill="#fff" />
			<path id="Контур_11106" data-name="Контур 11106"
				d="M12.964,19.722a.762.762,0,0,0,.91,0l10.983-6.648v-.549A1.524,1.524,0,0,0,23.333,11H3.524A1.524,1.524,0,0,0,2,12.525V12.7Z"
				transform="translate(0)" fill="#fff" />
			<path id="Контур_11107" data-name="Контур 11107"
				d="M16.338,33.743l-1.143.686a1.462,1.462,0,0,1-.857.274,1.523,1.523,0,0,1-.9-.294l-1.078-.69-8.887,7a1.523,1.523,0,0,0,.964.351H24.243a1.523,1.523,0,0,0,.964-.351Z"
				transform="translate(-0.91 -14.069)" fill="#fff" />
			<path id="Контур_11108" data-name="Контур 11108" d="M2,17.83V29.712a1.525,1.525,0,0,0,.111.557l8.657-6.816Z"
				transform="translate(0 -4.236)" fill="#fff" />
		</g>
	</symbol>

	<symbol id="ssl">
		<g id="noun_ssl_certificate_2559992" data-name="noun_ssl certificate_2559992"
			transform="translate(-5.105 -22.895)">
			<path id="Контур_11477" data-name="Контур 11477"
				d="M25.144,74.595h-.125a2.635,2.635,0,0,0-1.377,4.882l1.935,1.186a.832.832,0,0,1,.395.7v.158a.827.827,0,0,1-.827.827h-.125a.827.827,0,0,1-.827-.827v-.049a.9.9,0,0,0-1.808,0v.049a2.638,2.638,0,0,0,2.635,2.635h.125a2.638,2.638,0,0,0,2.635-2.635v-.158a2.652,2.652,0,0,0-1.258-2.247l-1.935-1.186a.827.827,0,0,1,.432-1.531h.125a.827.827,0,0,1,.827.827v.421a.9.9,0,1,0,1.808,0V77.23A2.639,2.639,0,0,0,25.144,74.595Z"
				transform="translate(-11.029 -33.002)" fill="#fff" />
			<path id="Контур_11478" data-name="Контур 11478"
				d="M44.175,74.595h-.126a2.635,2.635,0,0,0-1.377,4.882l1.935,1.186a.832.832,0,0,1,.395.7v.158a.827.827,0,0,1-.827.827h-.126a.827.827,0,0,1-.827-.827v-.049a.9.9,0,1,0-1.808,0v.049a2.638,2.638,0,0,0,2.635,2.635h.125a2.638,2.638,0,0,0,2.635-2.635v-.158a2.652,2.652,0,0,0-1.258-2.247l-1.935-1.186a.827.827,0,0,1,.432-1.531h.125A.827.827,0,0,1,45,77.23v.421a.9.9,0,0,0,1.808,0V77.23A2.638,2.638,0,0,0,44.175,74.595Z"
				transform="translate(-23.177 -33.002)" fill="#fff" />
			<path id="Контур_11479" data-name="Контур 11479"
				d="M64.938,82.353H62.254V75.5a.9.9,0,1,0-1.808,0v7.757a.9.9,0,0,0,.9.9h3.587a.9.9,0,1,0,0-1.808Z"
				transform="translate(-35.326 -33.002)" fill="#fff" />
			<path id="Контур_11480" data-name="Контур 11480"
				d="M58.013,22.9H6.371A1.266,1.266,0,0,0,5.1,24.161V62.935A1.266,1.266,0,0,0,6.371,64.2H58.013a1.266,1.266,0,0,0,1.266-1.266V24.161A1.266,1.266,0,0,0,58.013,22.9Zm-1.266,2.532v4.5H7.637v-4.5ZM7.637,61.669V31.73H56.748V61.669Z"
				transform="translate(0)" fill="#fff" />
			<circle id="Эллипс_5" data-name="Эллипс 5" cx="1.1" cy="1.1" r="1.1" transform="translate(9.374 26.572)"
				fill="#fff" />
			<circle id="Эллипс_6" data-name="Эллипс 6" cx="1.1" cy="1.1" r="1.1" transform="translate(13.644 26.572)"
				fill="#fff" />
			<path id="Контур_11481" data-name="Контур 11481"
				d="M41.622,35.263a1.1,1.1,0,1,0-1.1-1.1A1.1,1.1,0,0,0,41.622,35.263Z" transform="translate(-22.608 -6.491)"
				fill="#fff" />
			<path id="Контур_11482" data-name="Контур 11482"
				d="M102.108,79.874l-3.96,4.382-2.2-1.768a.9.9,0,0,0-1.132,1.41l2.867,2.3a.9.9,0,0,0,1.237-.1l4.532-5.015a.9.9,0,0,0-1.341-1.212Z"
				transform="translate(-57.048 -36.181)" fill="#fff" />
			<path id="Контур_11483" data-name="Контур 11483"
				d="M93.976,75.3a11.563,11.563,0,0,1-3.037,1.525c-2.662-.827-7.4-4.049-7.4-8.434V60.132a11.443,11.443,0,0,0,7.406-3.227,11.442,11.442,0,0,0,7.406,3.227v3.94a3.885,3.885,0,0,1,1.808,0V59.258a.9.9,0,0,0-.9-.9,9.4,9.4,0,0,1-7.571-3.335.9.9,0,0,0-.736-.381.89.89,0,0,0-.739.378,9.4,9.4,0,0,1-7.573,3.338.9.9,0,0,0-.9.9v9.131c0,5.239,5.284,9.194,8.856,10.217a.9.9,0,0,0,.249.035.836.836,0,0,0,.109-.009.914.914,0,0,0,.109.009.9.9,0,0,0,.249-.035,12.152,12.152,0,0,0,2.681-1.176c0-.02-.006-.038-.006-.058V75.3Z"
				transform="translate(-48.912 -20.262)" fill="#fff" />
			<path id="Контур_11484" data-name="Контур 11484"
				d="M125.931,87.591h-.367V86.031a3.1,3.1,0,1,0-6.2,0v1.559h-.366a.9.9,0,0,0-.9.9v6.937a.9.9,0,0,0,.9.9h6.937a.9.9,0,0,0,.9-.9V88.495A.9.9,0,0,0,125.931,87.591Zm-4.762-1.559a1.294,1.294,0,1,1,2.587,0v1.559h-2.587Zm3.858,8.5H119.9V89.4h5.129v5.129Z"
				transform="translate(-72.122 -38.322)" fill="#fff" />
		</g>
	</symbol>

	<!-- Card_ico  -->
	<symbol id="duplex">
		<path id="Контур_11213" data-name="Контур 11213"
			d="M20.454,12.9l-3.763-2.643V7.652l.35.245a.7.7,0,0,0,.805-1.155h0l-4.83-3.36a.683.683,0,0,0-.805,0L7.4,6.741A.7.7,0,1,0,8.2,7.9l.35-.245v2.608L4.773,12.9a.7.7,0,0,0,.805,1.155l1.138-.788V17.5a1.755,1.755,0,0,0,1.75,1.75h8.313a1.755,1.755,0,0,0,1.75-1.75V13.252l1.138.788a.7.7,0,0,0,.98-.175.671.671,0,0,0-.193-.963ZM9.936,6.671,12.613,4.8l2.678,1.873V9.279L13.016,7.687a.683.683,0,0,0-.805,0L9.936,9.279Zm3.535,11.183H11.756V16.42a.7.7,0,0,1,.7-.7h.315a.7.7,0,0,1,.7.7Zm3.658-.35a.351.351,0,0,1-.35.35H14.871V16.42a2.106,2.106,0,0,0-2.1-2.1h-.315a2.106,2.106,0,0,0-2.1,2.1v1.435H8.448a.351.351,0,0,1-.35-.35v-5.25l4.515-3.133,4.5,3.15Z"
			transform="translate(-4.47 -3.25)" />
	</symbol>

	<symbol id="rooms">
		<path id="Контур_11138" data-name="Контур 11138"
			d="M31.178,4.293,24.629,2.505a.506.506,0,0,0-.671.422V4.377H20.013a.476.476,0,0,0-.513.439V16.15a.477.477,0,0,0,.513.439h3.925v1.451a.5.5,0,0,0,.671.422l6.529-1.771a.447.447,0,0,0,.355-.422V4.715A.367.367,0,0,0,31.178,4.293ZM26.148,9.96a.546.546,0,1,1-.631.54A.583.583,0,0,1,26.148,9.96ZM20.6,15.678V5.322h3.353V15.661H20.6Z"
			transform="translate(-19.5 -2.486)" fill="inherit" />
	</symbol>

	<symbol id="sqm">
		<path id="Контур_11136" data-name="Контур 11136"
			d="M12.8,6.32,16,3.2,12.8,0,11.68,1.12,12.96,2.4H2.4V12.96L1.12,11.68,0,12.8,3.2,16l3.12-3.2L5.2,11.68,4,12.96V4h8.96L11.68,5.2Z"
			fill="inherit" />
	</symbol>

	<symbol id="exlusive">
		<g id="Сгруппировать_14838" data-name="Сгруппировать 14838" transform="translate(-1312.849 -2211)">
			<path id="Контур_11144" data-name="Контур 11144"
				d="M588.85,533.428v-1.567a1.27,1.27,0,0,1,2.54,0v1.567q1.093.025,2.156.092v-5.072l-3.427-2.9-3.426,2.9v5.072Q587.756,533.452,588.85,533.428Zm1.412-6.271h.8v.8h-.8Zm0,1.088h.8v.8h-.8Zm-1.087-1.088h.8v.8h-.8Zm0,1.088h.8v.8h-.8Z"
				transform="translate(730.659 1690.005)" fill="inherit" fill-rule="evenodd" />
			<path id="Контур_11145" data-name="Контур 11145"
				d="M592.145,520.312a8,8,0,0,0-4.263-4.262,8,8,0,0,0-6.217,0,8,8,0,0,0-4.263,4.262,8,8,0,0,0,0,6.218,8.208,8.208,0,0,0,.981,1.687c.218-.026.443-.046.664-.07.411-.045.822-.09,1.243-.125v-4.237l-.55.466v-1.309l4.962-4.2,2.36,2v-.688h1.321v1.807l1.281,1.085v1.309l-.55-.466v4.237c.459.037.907.086,1.354.136.228.024.46.046.684.074a8.252,8.252,0,0,0,.992-1.7,8,8,0,0,0,0-6.218Z"
				transform="translate(736.075 1695.579)" fill="inherit" fill-rule="evenodd" />
		</g>
	</symbol>

	<symbol id="popular">
		<path id="Контур_11134" data-name="Контур 11134" d="M5.959,10.332A.3.3,0,0,1,6.123,9.8l1.4-.109.528-1.311a.291.291,0,0,1,.546,0L9.127,9.7l1.4.109a.3.3,0,0,1,.164.528l-1.074.91.346,1.365a.3.3,0,0,1-.437.328l-1.183-.746-1.2.746a.294.294,0,0,1-.437-.328l.346-1.365ZM1.7,13.627V7.893A1.892,1.892,0,0,1,3.593,6h9.465a1.892,1.892,0,0,1,1.893,1.893v5.734a1.892,1.892,0,0,1-1.893,1.893H6.578L4.43,17.686a.7.7,0,0,1-.491.2.737.737,0,0,1-.491-.2.7.7,0,0,1-.218-.528V15.465A1.874,1.874,0,0,1,1.7,13.627Zm1.329,0a.587.587,0,0,0,.582.582h.947V15.7L6.05,14.209h7.044a.587.587,0,0,0,.582-.582V7.893a.587.587,0,0,0-.582-.582H3.629a.587.587,0,0,0-.582.582v5.734Zm16.255-1.6a1.892,1.892,0,0,0-1.893-1.893H16.244v1.329h1.147a.587.587,0,0,1,.582.582v5.734a.587.587,0,0,1-.582.582h-.947v1.474l-1.493-1.493H7.907a.587.587,0,0,1-.582-.582v-.983H7.106L6.014,17.868a1.9,1.9,0,0,0,1.893,1.784h6.5L16.553,21.8a.721.721,0,0,0,1.22-.51V19.6a1.911,1.911,0,0,0,1.511-1.857Z" transform="translate(-1.7 -6)" fill="inherit"/>
	</symbol>

	<symbol id="price">
		<path id="Контур_27780" data-name="Контур 27780" d="M21.424,9.19h-1.3V3.444a.942.942,0,0,0-.944-.944H11.4a.942.942,0,0,0-.944.944V9.19h-1.3a.893.893,0,0,0-.691,1.466L14.6,18.171a.891.891,0,0,0,1.382,0l6.134-7.516A.9.9,0,0,0,21.424,9.19ZM13.588,6.14a.893.893,0,1,1-.893.893A.888.888,0,0,1,13.588,6.14Zm.253,4.8a.548.548,0,0,1-.775-.775l3.674-3.674a.581.581,0,0,1,.388-.169.512.512,0,0,1,.388.169.539.539,0,0,1,0,.775Zm3.151.388a.893.893,0,1,1,.893-.893A.888.888,0,0,1,16.992,11.33Z" transform="translate(-8.256 -2.5)" fill="inherit"/>
	</symbol>

	<symbol id="sellers">
		<g id="Сгруппировать_16307" data-name="Сгруппировать 16307" transform="translate(-1685 -3727.061)">
			<g id="Сгруппировать_16305" data-name="Сгруппировать 16305" transform="translate(1742.12 3737.646)">
				<path id="Контур_27771" data-name="Контур 27771"
					d="M-.345,432.318H-4.324V407.943H1.517l-13.9-13.891-3.4,3.4L-18.6,394.64l4.6-4.594a2.356,2.356,0,0,1,3.251.006L7.22,408.017A2.288,2.288,0,0,1,5.6,411.922H-.345ZM-13.568,392.86l.01.01Zm2.388-.006-.01.01ZM-20.3,430.1H-24.28V394.963H-20.3Zm0-41.509H-24.28V373.3h8.354l-19.329-19.329L-54.581,373.3h8.354v10.579h-3.979v-6.6h-8.253a2.371,2.371,0,0,1-2.195-1.466,2.373,2.373,0,0,1,.519-2.588L-36.94,350.03a2.388,2.388,0,0,1,3.372,0l23.2,23.2a2.365,2.365,0,0,1,.517,2.585,2.37,2.37,0,0,1-2.195,1.466H-20.3Zm7.117-12.546,0,.006Zm-44.135,0,0,0Z"
					transform="translate(60.833 -349.333)" fill="#b611a9" />
			</g>
			<g id="Сгруппировать_16304" data-name="Сгруппировать 16304" transform="translate(1695.968 3744.228)">
				<path id="Контур_27764" data-name="Контур 27764"
					d="M-15.7,380.737l-30-26.756L-76.476,384.11a.654.654,0,0,0-.655.655v52.872a.655.655,0,0,0,.655.655h59.6c.362,0,1.17-.468,1.17-.83Z"
					transform="translate(90.857 -351.315)" fill="#ffdf77" />
				<path id="Контур_27765" data-name="Контур 27765"
					d="M-58.978,353.981l-4.741,4.642,24.794,22.114v56.724c0,.362-.808.83-1.17.83h9.948c.362,0,1.17-.468,1.17-.83V380.737Z"
					transform="translate(104.13 -351.315)" fill="#fff" />
				<path id="Контур_27766" data-name="Контур 27766"
					d="M-47.988,380.714H-65.644a.363.363,0,0,0-.362.362v30.759h18.38V381.076A.362.362,0,0,0-47.988,380.714Z"
					transform="translate(101.867 -324.86)" fill="#fff" />
				<g id="Сгруппировать_16303" data-name="Сгруппировать 16303" transform="translate(0 0)">
					<path id="Контур_27768" data-name="Контур 27768"
						d="M-10.047,441.606h-59.6a2.648,2.648,0,0,1-2.644-2.644V387.775l-9.089,8.106-2.648-2.969,45.152-40.272L4.6,391.422l-2.648,2.968L-7.4,386.044v52.917A2.648,2.648,0,0,1-10.047,441.606Zm-17.62-3.979h16.285v-50.2H-31.99v-3.979h21.673l-28.561-25.471-28.559,25.471h8.919v3.979h-9.8v50.2h18.29v-28.77a2.354,2.354,0,0,1,2.352-2.352h17.656a2.353,2.353,0,0,1,2.35,2.352Zm-18.378,0h14.4V410.485h-14.4Zm20.258-58.717h-5.159v-3.979h5.159Zm-10.479,0h-5.159v-3.979h5.159Zm-10.481,0H-51.9v-3.979h5.157Z"
						transform="translate(84.03 -352.641)" fill="#b611a9" />
				</g>
			</g>
			<g id="Сгруппировать_16306" data-name="Сгруппировать 16306" transform="translate(1685 3727.061)">
				<path id="Контур_27772" data-name="Контур 27772"
					d="M62.815,234.892V275a.116.116,0,0,0,.115.117h38.5a.116.116,0,0,0,.115-.117V234.892l-3.071,2.972-5.882-2.972-7.437,2.972-5.743-2.972-7.172,2.972Z"
					transform="translate(-51.533 -232.673)" fill="#fff" />
				<path id="Контур_27773" data-name="Контур 27773"
					d="M106.089,277.824H65.821l-.115-1.884V242.9H69.24V274.29h35.2V242.9h3.534v34.8Zm-12.9-7.154a4.6,4.6,0,0,1-3.257-7.859h0a4.605,4.605,0,1,1,3.257,7.859Zm-.758-5.361a1.071,1.071,0,1,0,1.514,0A1.073,1.073,0,0,0,92.432,265.309Zm-11.257,2.336-2.5-2.5,15.157-15.159,2.5,2.5Zm-.922-9.911a4.606,4.606,0,1,1,3.255-1.348A4.576,4.576,0,0,1,80.252,257.734Zm0-5.675a1.071,1.071,0,0,0-.758,1.827,1.1,1.1,0,0,0,1.514,0,1.071,1.071,0,0,0-.756-1.827Zm23.342-11.436a2.856,2.856,0,0,1-1.415-.375l-5.2-2.976-5.2,2.974a2.875,2.875,0,0,1-2.832,0l-5.2-2.972-5.188,2.97a2.866,2.866,0,0,1-2.832,0l-5.2-2.972-5.2,2.972a2.866,2.866,0,0,1-2.832,0l-6.073-3.476,1.755-3.066,5.734,3.281,5.2-2.974a2.86,2.86,0,0,1,2.834,0l5.195,2.97,5.19-2.972a2.859,2.859,0,0,1,2.836,0l5.195,2.972,5.2-2.976a2.87,2.87,0,0,1,2.832,0l5.2,2.976,5.211-2.976a2.86,2.86,0,0,1,2.827,0l6.091,3.477-1.753,3.069-5.75-3.283-5.211,2.976A2.856,2.856,0,0,1,103.594,240.623Z"
					transform="translate(-56.43 -233.636)" fill="#b611a9" />
			</g>
		</g>
	</symbol>

	<symbol id="buyers">
		<g id="Сгруппировать_16670" data-name="Сгруппировать 16670" transform="translate(-1671 -3917.145)">
			<g id="Сгруппировать_15800" data-name="Сгруппировать 15800" transform="translate(85 563.145)">
				<g id="Сгруппировать_16298" data-name="Сгруппировать 16298" transform="translate(-101)">
					<rect id="Прямоугольник_18218" data-name="Прямоугольник 18218" width="27.482" height="7.329" rx="1.763"
						transform="translate(1786.698 3445.608) rotate(180)" fill="#ffdf77" />
					<rect id="Прямоугольник_18219" data-name="Прямоугольник 18219" width="27.482" height="7.329" rx="1.763"
						transform="translate(1793.11 3453.852) rotate(180)" fill="#ffdf77" />
					<rect id="Прямоугольник_18221" data-name="Прямоугольник 18221" width="11.909" height="11.909" rx="4.468"
						transform="translate(1737.23 3400.72)" fill="#ffdf77" opacity="0.8" />
					<rect id="Прямоугольник_18222" data-name="Прямоугольник 18222" width="11.909" height="11.909" rx="4.468"
						transform="translate(1719.825 3400.72)" fill="#ffdf77" opacity="0.8" />
					<path id="Контур_11664" data-name="Контур 11664"
						d="M776.815,620.909h-3.721A4.1,4.1,0,0,1,769,616.815v-3.721A4.1,4.1,0,0,1,773.094,609h3.721a4.1,4.1,0,0,1,4.094,4.094v3.721A4.1,4.1,0,0,1,776.815,620.909Zm-3.721-9.161a1.347,1.347,0,0,0-1.346,1.346v3.721a1.347,1.347,0,0,0,1.346,1.346h3.721a1.347,1.347,0,0,0,1.346-1.346v-3.721a1.347,1.347,0,0,0-1.346-1.346Z"
						transform="translate(949.825 2809.125)" fill="#ffdf77" />
					<path id="Контур_11665" data-name="Контур 11665"
						d="M795.815,620.909h-3.721A4.1,4.1,0,0,1,788,616.815v-3.721A4.1,4.1,0,0,1,792.094,609h3.721a4.1,4.1,0,0,1,4.094,4.094v3.721A4.1,4.1,0,0,1,795.815,620.909Zm-3.721-9.161a1.347,1.347,0,0,0-1.346,1.346v3.721a1.347,1.347,0,0,0,1.346,1.346h3.721a1.347,1.347,0,0,0,1.346-1.346v-3.721a1.347,1.347,0,0,0-1.346-1.346Z"
						transform="translate(948.23 2809.125)" fill="#ffdf77" />
					<path id="Контур_11666" data-name="Контур 11666"
						d="M776.815,639.909h-3.721A4.1,4.1,0,0,1,769,635.815v-3.721A4.1,4.1,0,0,1,773.094,628h3.721a4.1,4.1,0,0,1,4.094,4.094v3.721A4.1,4.1,0,0,1,776.815,639.909Zm-3.721-9.161a1.347,1.347,0,0,0-1.346,1.346v3.721a1.347,1.347,0,0,0,1.346,1.346h3.721a1.347,1.347,0,0,0,1.346-1.346v-3.721a1.347,1.347,0,0,0-1.346-1.346Z"
						transform="translate(949.825 2807.531)" fill="#ffdf77" />
					<path id="Контур_11667" data-name="Контур 11667"
						d="M795.815,639.909h-3.721A4.1,4.1,0,0,1,788,635.815v-3.721A4.1,4.1,0,0,1,792.094,628h3.721a4.1,4.1,0,0,1,4.094,4.094v3.721A4.1,4.1,0,0,1,795.815,639.909Zm-3.721-9.161a1.347,1.347,0,0,0-1.346,1.346v3.721a1.347,1.347,0,0,0,1.346,1.346h3.721a1.347,1.347,0,0,0,1.346-1.346v-3.721a1.347,1.347,0,0,0-1.346-1.346Z"
						transform="translate(948.23 2807.531)" fill="#ffdf77" />
				</g>
				<g id="Сгруппировать_15797" data-name="Сгруппировать 15797" transform="translate(1599 3354)">
					<g id="Сгруппировать_15787" data-name="Сгруппировать 15787" transform="translate(50.384 82.447)">
						<path id="Контур_11659" data-name="Контур 11659"
							d="M842.569,639.993h-28.5A4.079,4.079,0,0,1,810,635.919v-2.845A4.078,4.078,0,0,1,814.074,629h28.5a4.078,4.078,0,0,1,4.074,4.074v2.845A4.078,4.078,0,0,1,842.569,639.993Zm-28.5-8.245a1.327,1.327,0,0,0-1.326,1.326v2.845a1.327,1.327,0,0,0,1.326,1.326h28.5a1.327,1.327,0,0,0,1.326-1.326v-2.845a1.327,1.327,0,0,0-1.326-1.326Z"
							transform="translate(-810 -629)" fill="#b611a9" />
					</g>
					<g id="Сгруппировать_15788" data-name="Сгруппировать 15788" transform="translate(56.796 90.691)">
						<path id="Контур_11660" data-name="Контур 11660"
							d="M849.569,648.993h-28.5A4.079,4.079,0,0,1,817,644.919v-2.845A4.079,4.079,0,0,1,821.074,638h28.5a4.078,4.078,0,0,1,4.074,4.074v2.845A4.078,4.078,0,0,1,849.569,648.993Zm-28.5-8.245a1.327,1.327,0,0,0-1.326,1.326v2.845a1.327,1.327,0,0,0,1.326,1.326h28.5a1.327,1.327,0,0,0,1.326-1.326v-2.845a1.327,1.327,0,0,0-1.326-1.326Z"
							transform="translate(-817 -638)" fill="#b611a9" />
					</g>
					<g id="Сгруппировать_15796" data-name="Сгруппировать 15796" transform="translate(16.449 0)">
						<path id="Контур_11668" data-name="Контур 11668"
							d="M846.493,622.611a1.373,1.373,0,0,1-1.061-2.246c.752-.916,1.479-1.87,2.16-2.832a1.374,1.374,0,1,1,2.245,1.583c-.718,1.019-1.486,2.026-2.281,2.995A1.373,1.373,0,0,1,846.493,622.611Zm5.134-7.57a1.375,1.375,0,0,1-1.2-2.037c.57-1.036,1.108-2.106,1.6-3.18a1.374,1.374,0,1,1,2.5,1.141c-.519,1.137-1.088,2.268-1.693,3.364A1.371,1.371,0,0,1,851.627,615.041Zm3.649-8.387a1.34,1.34,0,0,1-.428-.069,1.371,1.371,0,0,1-.877-1.733c.37-1.13.7-2.28.982-3.421a1.374,1.374,0,0,1,2.668.659c-.3,1.206-.647,2.424-1.04,3.618A1.373,1.373,0,0,1,855.276,606.654Zm2.032-8.914a1.35,1.35,0,0,1-.181-.012,1.374,1.374,0,0,1-1.183-1.542c.155-1.173.268-2.365.333-3.542a1.374,1.374,0,0,1,2.745.155c-.071,1.246-.19,2.506-.354,3.747A1.374,1.374,0,0,1,857.308,597.74Zm.357-9.137a1.374,1.374,0,0,1-1.371-1.3c-.061-1.175-.167-2.368-.315-3.547a1.374,1.374,0,0,1,2.726-.344c.157,1.246.268,2.507.333,3.749a1.375,1.375,0,0,1-1.3,1.444Zm-1.316-9.05a1.375,1.375,0,0,1-1.335-1.052c-.278-1.153-.6-2.306-.965-3.426a1.374,1.374,0,1,1,2.616-.843c.382,1.185.726,2.4,1.02,3.623a1.375,1.375,0,0,1-1.012,1.659A1.416,1.416,0,0,1,856.349,579.553Zm-2.965-8.652a1.372,1.372,0,0,1-1.253-.81c-.487-1.077-1.02-2.151-1.585-3.191a1.374,1.374,0,0,1,2.414-1.314c.6,1.1,1.162,2.235,1.675,3.376a1.372,1.372,0,0,1-.688,1.817A1.356,1.356,0,0,1,853.383,570.9Zm-4.518-7.954a1.373,1.373,0,0,1-1.128-.588c-.675-.967-1.4-1.925-2.145-2.844a1.374,1.374,0,1,1,2.133-1.734c.791.974,1.553,1.984,2.266,3.006a1.375,1.375,0,0,1-1.127,2.161Zm-5.9-6.989a1.371,1.371,0,0,1-.964-.395c-.846-.831-1.73-1.641-2.629-2.4a1.374,1.374,0,1,1,1.778-2.1c.951.807,1.885,1.661,2.778,2.539a1.375,1.375,0,0,1-.964,2.354Zm-68.632-.735a1.374,1.374,0,0,1-.944-2.374c.638-.6,1.305-1.2,1.985-1.776a1.374,1.374,0,0,1,1.778,2.1c-.642.546-1.273,1.111-1.876,1.68A1.373,1.373,0,0,1,774.33,555.224Zm6.309-5.048a1.375,1.375,0,0,1-.769-2.514c1.04-.7,2.115-1.37,3.2-1.989a1.375,1.375,0,1,1,1.363,2.387c-1.023.584-2.041,1.217-3.024,1.881A1.373,1.373,0,0,1,780.639,550.176Zm55.243-.006a1.374,1.374,0,0,1-.767-.234c-.983-.663-2-1.3-3.022-1.879a1.375,1.375,0,0,1,1.363-2.387c1.082.618,2.155,1.286,3.2,1.986a1.374,1.374,0,0,1-.77,2.514Zm-47.219-4.386a1.374,1.374,0,0,1-.545-2.635c1.15-.5,2.331-.956,3.511-1.364a1.374,1.374,0,0,1,.9,2.6c-1.116.386-2.232.82-3.32,1.289A1.36,1.36,0,0,1,788.663,545.783Zm39.2,0a1.361,1.361,0,0,1-.544-.113c-1.084-.468-2.2-.9-3.313-1.286a1.374,1.374,0,1,1,.9-2.6c1.18.408,2.359.866,3.5,1.361a1.374,1.374,0,0,1-.545,2.636Zm-8.692-2.829a1.374,1.374,0,0,1-.3-.033c-1.145-.258-2.323-.477-3.5-.653a1.373,1.373,0,1,1,.4-2.717c1.245.185,2.489.417,3.7.689a1.374,1.374,0,0,1-.3,2.714Zm-21.808,0a1.374,1.374,0,0,1-.3-2.714c1.218-.273,2.464-.5,3.7-.688a1.373,1.373,0,1,1,.4,2.717c-1.174.174-2.352.393-3.5.652A1.379,1.379,0,0,1,797.363,542.953Zm12.741-1.171h-.051c-1.182-.043-2.379-.044-3.563,0h-.051a1.374,1.374,0,0,1-.05-2.747c1.251-.047,2.518-.046,3.764,0a1.374,1.374,0,0,1-.049,2.747Z"
							transform="translate(-772.956 -538.999)" fill="#b611a9" />
					</g>
				</g>
			</g>
			<g id="Сгруппировать_16297" data-name="Сгруппировать 16297" transform="translate(-34 6.567)">
				<g id="Сгруппировать_16296" data-name="Сгруппировать 16296" transform="translate(1862.961 3598.635)">
					<rect id="Прямоугольник_19465" data-name="Прямоугольник 19465" width="38.861" height="12.915"
						transform="translate(-136.419 399.028)" fill="#fff" />
					<rect id="Прямоугольник_19466" data-name="Прямоугольник 19466" width="38.861" height="6.457"
						transform="translate(-136.419 399.028)" fill="#ffdf77" />
					<rect id="Прямоугольник_19467" data-name="Прямоугольник 19467" width="78.951" height="49.148" rx="0.991"
						transform="translate(-155.791 349.562)" fill="#fff" />
					<path id="Контур_27746" data-name="Контур 27746"
						d="M-79.671,340.168A1.835,1.835,0,0,1-77.836,342v36.3h-78.953V342a1.835,1.835,0,0,1,1.834-1.834Z"
						transform="translate(0.997 10.158)" fill="#fff" />
					<rect id="Прямоугольник_19468" data-name="Прямоугольник 19468" width="53.421" height="57.781"
						transform="translate(-143.277 330.362)" fill="#fff" />
					<rect id="Прямоугольник_19469" data-name="Прямоугольник 19469" width="53.421" height="9.979"
						transform="translate(-143.277 330.362)" fill="#ffdf77" />
					<path id="Контур_27747" data-name="Контур 27747"
						d="M-89.977,413.627h-53.176v-3.7h5.09v-8.966h-16.2a3.7,3.7,0,0,1-3.7-3.7v-45.85a3.7,3.7,0,0,1,3.7-3.7h7.391v3.7h-7.391l0,35.1h9.384V328.231h57.122v58.283h9.386l0-35.1-7.728,0v-3.7h7.73a3.7,3.7,0,0,1,3.7,3.7v45.85a3.7,3.7,0,0,1-3.7,3.7H-95.491v8.966h5.514Zm-44.384-3.7h35.168v-8.966h-35.168Zm-19.9-19.709v7.045l75.891,0v-7.041Zm13.084-3.7h49.719V342.58h-49.719Zm0-47.636h49.719v-6.945h-49.719Zm18.423-1.436h-4.183v-3.7h4.183Zm-5.781,0h-4.183v-3.7h4.183Zm-5.779,0h-4.183v-3.7h4.183Z"
						transform="translate(0)" fill="#b611a9" />
					<g id="Сгруппировать_16295" data-name="Сгруппировать 16295" transform="translate(-137.771 346.06)">
						<rect id="Прямоугольник_19470" data-name="Прямоугольник 19470" width="3.702" height="11.645"
							transform="translate(14.384 16.566) rotate(-45)" fill="#b611a9" />
						<path id="Контур_27748" data-name="Контур 27748" d="M-136.653,353.941h-3.7v-9.614h9.614v3.7h-5.912Z"
							transform="translate(152.753 -332.363)" fill="#b611a9" />
						<path id="Контур_27749" data-name="Контур 27749"
							d="M-132.989,369.1a15.627,15.627,0,0,1-11.4-6.843,15.557,15.557,0,0,1-2.371-11.744,15.56,15.56,0,0,1,6.628-9.982,15.576,15.576,0,0,1,11.748-2.371,15.566,15.566,0,0,1,9.982,6.63,15.656,15.656,0,0,1,2.523,10.824l-3.67-.494a11.936,11.936,0,0,0-1.925-8.265,11.879,11.879,0,0,0-7.622-5.062,11.883,11.883,0,0,0-8.968,1.81,11.875,11.875,0,0,0-5.062,7.62,11.873,11.873,0,0,0,1.81,8.97,11.922,11.922,0,0,0,8.7,5.221Z"
							transform="translate(147.053 -337.863)" fill="#b611a9" />
						<rect id="Прямоугольник_19471" data-name="Прямоугольник 19471" width="7.882" height="3.702"
							transform="translate(34.397 6.394)" fill="#b611a9" />
						<rect id="Прямоугольник_19472" data-name="Прямоугольник 19472" width="7.882" height="3.702"
							transform="translate(34.397 14.101)" fill="#b611a9" />
						<rect id="Прямоугольник_19473" data-name="Прямоугольник 19473" width="12.812" height="3.703"
							transform="translate(29.467 21.808)" fill="#b611a9" />
						<rect id="Прямоугольник_19474" data-name="Прямоугольник 19474" width="22.47" height="3.702"
							transform="translate(19.809 29.515)" fill="#b611a9" />
					</g>
				</g>
			</g>
		</g>
	</symbol>



</svg>
