<svg xmlns="http://www.w3.org/2000/svg" width="16" height="15.899" viewBox="0 0 16 15.899">
  <g id="noun_filter_2957478" transform="translate(33.362 -0.799) rotate(90)">
    <g id="Сгруппировать_14861" data-name="Сгруппировать 14861" transform="translate(0.799 17.362)">
      <g id="Сгруппировать_14844" data-name="Сгруппировать 14844" transform="translate(1.503 5.631)">
        <g id="Сгруппировать_14843" data-name="Сгруппировать 14843">
          <path id="Контур_11214" data-name="Контур 11214" d="M114.985,374.622v-7.678c0-.354,0-.706,0-1.06v-.015a.841.841,0,0,0-.236-.572.811.811,0,0,0-1.144,0,.838.838,0,0,0-.236.572v7.678c0,.354,0,.706,0,1.06v.015a.841.841,0,0,0,.236.572.811.811,0,0,0,1.144,0,.852.852,0,0,0,.236-.572Z" transform="translate(-113.367 -365.062)" fill="#b60ca7"/>
        </g>
      </g>
      <g id="Сгруппировать_14846" data-name="Сгруппировать 14846" transform="translate(1.505 0)">
        <g id="Сгруппировать_14845" data-name="Сгруппировать 14845">
          <path id="Контур_11215" data-name="Контур 11215" d="M115.116,20.782V18.17a.841.841,0,0,0-.236-.572.811.811,0,0,0-1.144,0,.838.838,0,0,0-.236.572v2.611a.841.841,0,0,0,.236.572.811.811,0,0,0,1.144,0,.849.849,0,0,0,.236-.572Z" transform="translate(-113.5 -17.362)" fill="#b60ca7"/>
        </g>
      </g>
      <g id="Сгруппировать_14848" data-name="Сгруппировать 14848" transform="translate(0 2.613)">
        <g id="Сгруппировать_14847" data-name="Сгруппировать 14847">
          <path id="Контур_11216" data-name="Контур 11216" d="M23.394,181.211a1.7,1.7,0,0,1-.013.2l.029-.215a1.6,1.6,0,0,1-.1.378c.027-.065.055-.129.081-.192a1.58,1.58,0,0,1-.192.331l.126-.163a1.58,1.58,0,0,1-.284.284l.163-.126a1.655,1.655,0,0,1-.331.192l.192-.081a1.522,1.522,0,0,1-.378.1l.215-.029a1.537,1.537,0,0,1-.4,0l.215.029a1.6,1.6,0,0,1-.378-.1l.192.081a1.581,1.581,0,0,1-.331-.192l.163.126a1.58,1.58,0,0,1-.284-.284l.126.163a1.654,1.654,0,0,1-.192-.331c.027.065.055.129.081.192a1.522,1.522,0,0,1-.1-.378l.029.215a1.537,1.537,0,0,1,0-.4l-.029.215a1.6,1.6,0,0,1,.1-.378c-.027.065-.055.129-.081.192a1.581,1.581,0,0,1,.192-.331l-.126.163a1.579,1.579,0,0,1,.284-.284l-.163.126a1.654,1.654,0,0,1,.331-.192l-.192.081a1.522,1.522,0,0,1,.378-.1l-.215.029a1.538,1.538,0,0,1,.4,0l-.215-.029a1.6,1.6,0,0,1,.378.1l-.192-.081a1.58,1.58,0,0,1,.331.192l-.163-.126a1.579,1.579,0,0,1,.284.284l-.126-.163a1.655,1.655,0,0,1,.192.331c-.027-.065-.055-.129-.081-.192a1.522,1.522,0,0,1,.1.378l-.029-.215a1.7,1.7,0,0,1,.013.2.841.841,0,0,0,.236.572.811.811,0,0,0,1.144,0,.835.835,0,0,0,.236-.572,2.259,2.259,0,0,0-.393-1.285,3.172,3.172,0,0,0-.262-.326,2.687,2.687,0,0,0-.338-.281,2.3,2.3,0,0,0-3.061.377,3.014,3.014,0,0,0-.242.328,2.477,2.477,0,0,0-.183.393,2.3,2.3,0,0,0,.178,1.973,2.25,2.25,0,0,0,.962.889,3.1,3.1,0,0,0,.4.157,2.847,2.847,0,0,0,.452.078,2.262,2.262,0,0,0,.684-.045,2.115,2.115,0,0,0,.674-.267,2.151,2.151,0,0,0,.548-.456,2.77,2.77,0,0,0,.271-.372,2.685,2.685,0,0,0,.183-.406,2.18,2.18,0,0,0,.129-.755.831.831,0,0,0-.236-.572.808.808,0,0,0-1.378.57Z" transform="translate(-20.387 -178.899)" fill="#b60ca7"/>
        </g>
      </g>
      <g id="Сгруппировать_14850" data-name="Сгруппировать 14850" transform="translate(7.142 12.095)">
        <g id="Сгруппировать_14849" data-name="Сгруппировать 14849">
          <path id="Контур_11217" data-name="Контур 11217" d="M463.616,768.159V765.87a.841.841,0,0,0-.236-.572.811.811,0,0,0-1.144,0,.838.838,0,0,0-.236.572v2.288a.841.841,0,0,0,.236.572.812.812,0,0,0,1.144,0,.852.852,0,0,0,.236-.572Z" transform="translate(-462 -765.062)" fill="#b60ca7"/>
        </g>
      </g>
      <g id="Сгруппировать_14852" data-name="Сгруппировать 14852" transform="translate(7.14 0.002)">
        <g id="Сгруппировать_14851" data-name="Сгруппировать 14851">
          <path id="Контур_11218" data-name="Контур 11218" d="M463.485,27.344V19.388c0-.368,0-.737,0-1.1V18.27a.841.841,0,0,0-.236-.572.812.812,0,0,0-1.144,0,.838.838,0,0,0-.236.572v7.955c0,.368,0,.737,0,1.1v.015a.841.841,0,0,0,.236.572.812.812,0,0,0,1.144,0,.849.849,0,0,0,.236-.572Z" transform="translate(-461.867 -17.462)" fill="#b60ca7"/>
        </g>
      </g>
      <g id="Сгруппировать_14854" data-name="Сгруппировать 14854" transform="translate(5.638 9.086)">
        <g id="Сгруппировать_14853" data-name="Сгруппировать 14853">
          <path id="Контур_11219" data-name="Контур 11219" d="M371.894,581.211a1.7,1.7,0,0,1-.013.2l.029-.215a1.6,1.6,0,0,1-.1.378c.027-.065.055-.129.081-.192a1.578,1.578,0,0,1-.192.331l.126-.163a1.579,1.579,0,0,1-.284.284l.163-.126a1.65,1.65,0,0,1-.331.192l.192-.081a1.526,1.526,0,0,1-.378.1l.215-.029a1.538,1.538,0,0,1-.4,0l.215.029a1.6,1.6,0,0,1-.378-.1l.192.081a1.578,1.578,0,0,1-.331-.192l.163.126a1.578,1.578,0,0,1-.284-.284l.126.163a1.653,1.653,0,0,1-.192-.331c.027.065.055.129.081.192a1.523,1.523,0,0,1-.1-.378l.029.215a1.538,1.538,0,0,1,0-.4l-.029.215a1.594,1.594,0,0,1,.1-.378c-.027.065-.055.129-.081.192a1.581,1.581,0,0,1,.192-.331l-.126.163a1.578,1.578,0,0,1,.284-.284l-.163.126a1.653,1.653,0,0,1,.331-.192l-.192.081a1.521,1.521,0,0,1,.378-.1l-.215.029a1.533,1.533,0,0,1,.4,0l-.215-.029a1.6,1.6,0,0,1,.378.1l-.192-.081a1.581,1.581,0,0,1,.331.192l-.163-.126a1.579,1.579,0,0,1,.284.284l-.126-.163a1.656,1.656,0,0,1,.192.331c-.027-.065-.055-.129-.081-.192a1.522,1.522,0,0,1,.1.378l-.029-.215a1.7,1.7,0,0,1,.013.2.841.841,0,0,0,.236.572.811.811,0,0,0,1.144,0,.835.835,0,0,0,.236-.572,2.259,2.259,0,0,0-.393-1.285,3.172,3.172,0,0,0-.262-.326,2.687,2.687,0,0,0-.338-.281,2.3,2.3,0,0,0-3.061.376,3.021,3.021,0,0,0-.242.328,2.479,2.479,0,0,0-.183.393,2.3,2.3,0,0,0,.178,1.973,2.249,2.249,0,0,0,.961.889,3.1,3.1,0,0,0,.4.157,2.855,2.855,0,0,0,.452.078,2.263,2.263,0,0,0,.684-.045,2.114,2.114,0,0,0,.674-.267,2.154,2.154,0,0,0,.548-.456,2.78,2.78,0,0,0,.271-.372,2.688,2.688,0,0,0,.183-.406,2.181,2.181,0,0,0,.129-.755.831.831,0,0,0-.236-.572.808.808,0,0,0-1.378.57Z" transform="translate(-368.887 -578.899)" fill="#b60ca7"/>
        </g>
      </g>
      <g id="Сгруппировать_14856" data-name="Сгруппировать 14856" transform="translate(12.778 8.703)">
        <g id="Сгруппировать_14855" data-name="Сгруппировать 14855">
          <path id="Контур_11220" data-name="Контур 11220" d="M812.029,561.65v-4.979c0-.231,0-.462,0-.692v-.01a.841.841,0,0,0-.236-.572.811.811,0,0,0-1.144,0,.838.838,0,0,0-.236.572v4.979c0,.231,0,.462,0,.692v.01a.841.841,0,0,0,.236.572.811.811,0,0,0,1.144,0,.852.852,0,0,0,.236-.572Z" transform="translate(-810.411 -555.162)" fill="#b60ca7"/>
        </g>
      </g>
      <g id="Сгруппировать_14858" data-name="Сгруппировать 14858" transform="translate(12.778 0.002)">
        <g id="Сгруппировать_14857" data-name="Сгруппировать 14857">
          <path id="Контур_11221" data-name="Контур 11221" d="M812.029,23.95V18.972c0-.231,0-.462,0-.692v-.01a.841.841,0,0,0-.236-.572.811.811,0,0,0-1.144,0,.838.838,0,0,0-.236.572v4.979c0,.231,0,.462,0,.692v.01a.841.841,0,0,0,.236.572.811.811,0,0,0,1.144,0,.849.849,0,0,0,.236-.572Z" transform="translate(-810.411 -17.462)" fill="#b60ca7"/>
        </g>
      </g>
      <g id="Сгруппировать_14860" data-name="Сгруппировать 14860" transform="translate(11.275 5.687)">
        <g id="Сгруппировать_14859" data-name="Сгруппировать 14859">
          <path id="Контур_11222" data-name="Контур 11222" d="M720.394,371.211a1.7,1.7,0,0,1-.013.2l.029-.215a1.592,1.592,0,0,1-.1.378c.028-.065.055-.129.081-.192a1.58,1.58,0,0,1-.192.331l.126-.163a1.58,1.58,0,0,1-.284.284l.163-.126a1.654,1.654,0,0,1-.331.192l.192-.081a1.524,1.524,0,0,1-.378.1l.215-.029a1.538,1.538,0,0,1-.4,0l.215.029a1.6,1.6,0,0,1-.378-.1l.192.081a1.581,1.581,0,0,1-.331-.192l.163.126a1.58,1.58,0,0,1-.284-.284l.126.163a1.65,1.65,0,0,1-.192-.331c.027.065.055.129.081.192a1.52,1.52,0,0,1-.1-.378l.029.215a1.533,1.533,0,0,1,0-.4l-.029.215a1.6,1.6,0,0,1,.1-.378c-.027.065-.055.129-.081.192a1.578,1.578,0,0,1,.192-.331l-.126.163a1.582,1.582,0,0,1,.284-.284l-.163.126a1.656,1.656,0,0,1,.331-.192l-.192.081a1.524,1.524,0,0,1,.378-.1l-.215.029a1.538,1.538,0,0,1,.4,0l-.215-.029a1.6,1.6,0,0,1,.378.1l-.192-.081a1.578,1.578,0,0,1,.331.192l-.163-.126a1.582,1.582,0,0,1,.284.284l-.126-.163a1.653,1.653,0,0,1,.192.331c-.027-.065-.055-.129-.081-.192a1.521,1.521,0,0,1,.1.378l-.029-.215a1.7,1.7,0,0,1,.013.2.841.841,0,0,0,.236.572.811.811,0,0,0,1.144,0,.835.835,0,0,0,.236-.572,2.259,2.259,0,0,0-.393-1.285,3.172,3.172,0,0,0-.262-.326,2.687,2.687,0,0,0-.338-.281,2.3,2.3,0,0,0-3.061.377,3.018,3.018,0,0,0-.242.328,2.477,2.477,0,0,0-.183.393,2.3,2.3,0,0,0,.178,1.973,2.25,2.25,0,0,0,.961.889,3.1,3.1,0,0,0,.4.157,2.85,2.85,0,0,0,.452.078,2.264,2.264,0,0,0,.684-.045,2.114,2.114,0,0,0,.674-.267,2.15,2.15,0,0,0,.548-.456,2.764,2.764,0,0,0,.271-.372,2.682,2.682,0,0,0,.183-.406,2.179,2.179,0,0,0,.129-.755.831.831,0,0,0-.236-.572.808.808,0,0,0-1.378.57Z" transform="translate(-717.387 -368.899)" fill="#b60ca7"/>
        </g>
      </g>
    </g>
  </g>
</svg>
