<svg xmlns="http://www.w3.org/2000/svg" width="17.584" height="16" viewBox="0 0 17.584 16">
  <path id="Контур_11134" data-name="Контур 11134" d="M5.959,10.332A.3.3,0,0,1,6.123,9.8l1.4-.109.528-1.311a.291.291,0,0,1,.546,0L9.127,9.7l1.4.109a.3.3,0,0,1,.164.528l-1.074.91.346,1.365a.3.3,0,0,1-.437.328l-1.183-.746-1.2.746a.294.294,0,0,1-.437-.328l.346-1.365ZM1.7,13.627V7.893A1.892,1.892,0,0,1,3.593,6h9.465a1.892,1.892,0,0,1,1.893,1.893v5.734a1.892,1.892,0,0,1-1.893,1.893H6.578L4.43,17.686a.7.7,0,0,1-.491.2.737.737,0,0,1-.491-.2.7.7,0,0,1-.218-.528V15.465A1.874,1.874,0,0,1,1.7,13.627Zm1.329,0a.587.587,0,0,0,.582.582h.947V15.7L6.05,14.209h7.044a.587.587,0,0,0,.582-.582V7.893a.587.587,0,0,0-.582-.582H3.629a.587.587,0,0,0-.582.582v5.734Zm16.255-1.6a1.892,1.892,0,0,0-1.893-1.893H16.244v1.329h1.147a.587.587,0,0,1,.582.582v5.734a.587.587,0,0,1-.582.582h-.947v1.474l-1.493-1.493H7.907a.587.587,0,0,1-.582-.582v-.983H7.106L6.014,17.868a1.9,1.9,0,0,0,1.893,1.784h6.5L16.553,21.8a.721.721,0,0,0,1.22-.51V19.6a1.911,1.911,0,0,0,1.511-1.857Z" transform="translate(-1.7 -6)" fill="#fedf77"/>
</svg>
