<svg xmlns="http://www.w3.org/2000/svg" width="31.463" height="29.291" viewBox="0 0 31.463 29.291">
  <path id="Контур_11244" data-name="Контур 11244" d="M23.922,8.657A14.619,14.619,0,0,1,33.4,17.23l.458-.875a1.432,1.432,0,0,1,2.537,1.33L34.26,21.753a1.424,1.424,0,0,1-1.6.722.935.935,0,0,1-.324-.114l-4.12-2.148a1.416,1.416,0,0,1-.61-1.92,1.448,1.448,0,0,1,1.926-.608l1.24.646a11.741,11.741,0,1,0,.362,7.679A1.424,1.424,0,0,1,32.5,24.985a1.454,1.454,0,0,1,.4.057,1.417,1.417,0,0,1,.973,1.768,14.693,14.693,0,0,1-14.1,10.53,14.909,14.909,0,0,1-4.139-.589,14.643,14.643,0,0,1,4.14-28.7A14.363,14.363,0,0,1,23.922,8.657Z" transform="translate(-5.095 -8.049)" fill="#24012f"/>
</svg>
