<svg xmlns="http://www.w3.org/2000/svg" width="33.086" height="28.944" viewBox="0 0 33.086 28.944">
  <path id="Контур_11242" data-name="Контур 11242" d="M32.277,8.3H5.809A3.324,3.324,0,0,0,2.5,11.6V27.041a3.324,3.324,0,0,0,3.309,3.3H9.64v5.136a1.7,1.7,0,0,0,1.045,1.6,1.9,1.9,0,0,0,.766.174,1.8,1.8,0,0,0,1.149-.416l7.662-6.49H32.277a3.324,3.324,0,0,0,3.309-3.3V11.6A3.324,3.324,0,0,0,32.277,8.3Zm-22.6,5.275a2.055,2.055,0,0,1,2.055,2.048A2.033,2.033,0,0,1,9.674,17.67,2.055,2.055,0,0,1,7.62,15.623,2.078,2.078,0,0,1,9.674,13.575Zm.07,11.036a1.157,1.157,0,0,1-.871.347A1.377,1.377,0,0,1,8,24.611a1.149,1.149,0,0,1-.348-.868A1.367,1.367,0,0,1,8,22.876l8.951-8.919a1.157,1.157,0,0,1,.871-.347,1.377,1.377,0,0,1,.871.347,1.149,1.149,0,0,1,.348.868,1.367,1.367,0,0,1-.348.868Zm7.279.382a2.048,2.048,0,1,1,0-4.1,2.078,2.078,0,0,1,2.055,2.048A2.033,2.033,0,0,1,17.023,24.993Zm9.09-.382a.535.535,0,0,1-.522.521H22.352a.535.535,0,0,1-.522-.521v-1.6a.535.535,0,0,1,.522-.521h3.239a.535.535,0,0,1,.522.521ZM27.924,20.1a.535.535,0,0,1-.522.521h-5.05a.535.535,0,0,1-.522-.521V18.5a.535.535,0,0,1,.522-.521H27.4a.535.535,0,0,1,.522.521Zm2.542-4.546a.535.535,0,0,1-.522.521H22.352a.535.535,0,0,1-.522-.521v-1.6a.535.535,0,0,1,.522-.521h7.558a.535.535,0,0,1,.522.521v1.6Z" transform="translate(-2.5 -8.3)" fill="#24012f"/>
</svg>
