<svg xmlns="http://www.w3.org/2000/svg" width="32.268" height="32.051" viewBox="0 0 32.268 32.051">
  <path id="noun_Approve_50338" d="M32.11,17.094l-1.9-3,1.128-3.367a1.018,1.018,0,0,0-.457-1.2L27.8,7.749l-.566-3.506a1.022,1.022,0,0,0-.965-.855l-3.55-.139L20.591.407A1.016,1.016,0,0,0,19.34.1L16.134,1.624,12.926.1a1.021,1.021,0,0,0-1.251.309L9.546,3.249,6,3.388a1.018,1.018,0,0,0-.964.854L4.466,7.748,1.388,9.522a1.018,1.018,0,0,0-.458,1.2l1.128,3.367-1.9,3a1.019,1.019,0,0,0,.157,1.28l2.563,2.458L2.589,24.37a1.019,1.019,0,0,0,.731,1.062l3.412.983,1.389,3.269a1.014,1.014,0,0,0,1.141.6l3.481-.714,2.747,2.25a1.018,1.018,0,0,0,1.29,0l2.747-2.25,3.481.714a1.016,1.016,0,0,0,1.141-.6l1.389-3.269,3.412-.983a1.018,1.018,0,0,0,.731-1.062l-.288-3.538,2.563-2.458A1.019,1.019,0,0,0,32.11,17.094Zm-8.618-4.9L16.367,22.873a1.4,1.4,0,0,1-1.1.665A1.783,1.783,0,0,1,14.1,23.01L8.866,17.7a.941.941,0,0,1,0-1.315l1.291-1.315a.91.91,0,0,1,1.291,0l3.4,3.458,5.614-8.411a.906.906,0,0,1,1.27-.245l1.514,1.04a.94.94,0,0,1,.243,1.29Z" transform="translate(0 0)" fill="#24012f"/>
</svg>
