<svg xmlns="http://www.w3.org/2000/svg" width="14.069" height="16" viewBox="0 0 14.069 16">
  <path id="Контур_27780" data-name="Контур 27780" d="M21.424,9.19h-1.3V3.444a.942.942,0,0,0-.944-.944H11.4a.942.942,0,0,0-.944.944V9.19h-1.3a.893.893,0,0,0-.691,1.466L14.6,18.171a.891.891,0,0,0,1.382,0l6.134-7.516A.9.9,0,0,0,21.424,9.19ZM13.588,6.14a.893.893,0,1,1-.893.893A.888.888,0,0,1,13.588,6.14Zm.253,4.8a.548.548,0,0,1-.775-.775l3.674-3.674a.581.581,0,0,1,.388-.169.512.512,0,0,1,.388.169.539.539,0,0,1,0,.775Zm3.151.388a.893.893,0,1,1,.893-.893A.888.888,0,0,1,16.992,11.33Z" transform="translate(-8.256 -2.5)" fill="#99eac1"/>
</svg>
