<svg xmlns="http://www.w3.org/2000/svg" width="12" height="16" viewBox="0 0 12 16">
  <path id="Контур_11138" data-name="Контур 11138" d="M31.178,4.293,24.629,2.505a.506.506,0,0,0-.671.422V4.377H20.013a.476.476,0,0,0-.513.439V16.15a.477.477,0,0,0,.513.439h3.925v1.451a.5.5,0,0,0,.671.422l6.529-1.771a.447.447,0,0,0,.355-.422V4.715A.367.367,0,0,0,31.178,4.293ZM26.148,9.96a.546.546,0,1,1-.631.54A.583.583,0,0,1,26.148,9.96ZM20.6,15.678V5.322h3.353V15.661H20.6Z" transform="translate(-19.5 -2.486)" fill="#24002f"/>
</svg>
