<svg xmlns="http://www.w3.org/2000/svg" width="125.843" height="106.132" viewBox="0 0 125.843 106.132">
  <g id="Сгруппировать_16308" data-name="Сгруппировать 16308" transform="translate(-1676 -3699.061)">
    <g id="Сгруппировать_16307" data-name="Сгруппировать 16307" transform="translate(-9 -28)">
      <g id="Сгруппировать_16305" data-name="Сгруппировать 16305" transform="translate(1742.12 3737.646)">
        <path id="Контур_27771" data-name="Контур 27771" d="M-.345,432.318H-4.324V407.943H1.517l-13.9-13.891-3.4,3.4L-18.6,394.64l4.6-4.594a2.356,2.356,0,0,1,3.251.006L7.22,408.017A2.288,2.288,0,0,1,5.6,411.922H-.345ZM-13.568,392.86l.01.01Zm2.388-.006-.01.01ZM-20.3,430.1H-24.28V394.963H-20.3Zm0-41.509H-24.28V373.3h8.354l-19.329-19.329L-54.581,373.3h8.354v10.579h-3.979v-6.6h-8.253a2.371,2.371,0,0,1-2.195-1.466,2.373,2.373,0,0,1,.519-2.588L-36.94,350.03a2.388,2.388,0,0,1,3.372,0l23.2,23.2a2.365,2.365,0,0,1,.517,2.585,2.37,2.37,0,0,1-2.195,1.466H-20.3Zm7.117-12.546,0,.006Zm-44.135,0,0,0Z" transform="translate(60.833 -349.333)" fill="#b611a9"/>
      </g>
      <g id="Сгруппировать_16304" data-name="Сгруппировать 16304" transform="translate(1695.968 3744.228)">
        <path id="Контур_27764" data-name="Контур 27764" d="M-15.7,380.737l-30-26.756L-76.476,384.11a.654.654,0,0,0-.655.655v52.872a.655.655,0,0,0,.655.655h59.6c.362,0,1.17-.468,1.17-.83Z" transform="translate(90.857 -351.315)" fill="#ffdf77"/>
        <path id="Контур_27765" data-name="Контур 27765" d="M-58.978,353.981l-4.741,4.642,24.794,22.114v56.724c0,.362-.808.83-1.17.83h9.948c.362,0,1.17-.468,1.17-.83V380.737Z" transform="translate(104.13 -351.315)" fill="#fff"/>
        <path id="Контур_27766" data-name="Контур 27766" d="M-47.988,380.714H-65.644a.363.363,0,0,0-.362.362v30.759h18.38V381.076A.362.362,0,0,0-47.988,380.714Z" transform="translate(101.867 -324.86)" fill="#fff"/>
        <g id="Сгруппировать_16303" data-name="Сгруппировать 16303" transform="translate(0 0)">
          <path id="Контур_27768" data-name="Контур 27768" d="M-10.047,441.606h-59.6a2.648,2.648,0,0,1-2.644-2.644V387.775l-9.089,8.106-2.648-2.969,45.152-40.272L4.6,391.422l-2.648,2.968L-7.4,386.044v52.917A2.648,2.648,0,0,1-10.047,441.606Zm-17.62-3.979h16.285v-50.2H-31.99v-3.979h21.673l-28.561-25.471-28.559,25.471h8.919v3.979h-9.8v50.2h18.29v-28.77a2.354,2.354,0,0,1,2.352-2.352h17.656a2.353,2.353,0,0,1,2.35,2.352Zm-18.378,0h14.4V410.485h-14.4Zm20.258-58.717h-5.159v-3.979h5.159Zm-10.479,0h-5.159v-3.979h5.159Zm-10.481,0H-51.9v-3.979h5.157Z" transform="translate(84.03 -352.641)" fill="#b611a9"/>
        </g>
      </g>
      <g id="Сгруппировать_16306" data-name="Сгруппировать 16306" transform="translate(1685 3727.061)">
        <path id="Контур_27772" data-name="Контур 27772" d="M62.815,234.892V275a.116.116,0,0,0,.115.117h38.5a.116.116,0,0,0,.115-.117V234.892l-3.071,2.972-5.882-2.972-7.437,2.972-5.743-2.972-7.172,2.972Z" transform="translate(-51.533 -232.673)" fill="#fff"/>
        <path id="Контур_27773" data-name="Контур 27773" d="M106.089,277.824H65.821l-.115-1.884V242.9H69.24V274.29h35.2V242.9h3.534v34.8Zm-12.9-7.154a4.6,4.6,0,0,1-3.257-7.859h0a4.605,4.605,0,1,1,3.257,7.859Zm-.758-5.361a1.071,1.071,0,1,0,1.514,0A1.073,1.073,0,0,0,92.432,265.309Zm-11.257,2.336-2.5-2.5,15.157-15.159,2.5,2.5Zm-.922-9.911a4.606,4.606,0,1,1,3.255-1.348A4.576,4.576,0,0,1,80.252,257.734Zm0-5.675a1.071,1.071,0,0,0-.758,1.827,1.1,1.1,0,0,0,1.514,0,1.071,1.071,0,0,0-.756-1.827Zm23.342-11.436a2.856,2.856,0,0,1-1.415-.375l-5.2-2.976-5.2,2.974a2.875,2.875,0,0,1-2.832,0l-5.2-2.972-5.188,2.97a2.866,2.866,0,0,1-2.832,0l-5.2-2.972-5.2,2.972a2.866,2.866,0,0,1-2.832,0l-6.073-3.476,1.755-3.066,5.734,3.281,5.2-2.974a2.86,2.86,0,0,1,2.834,0l5.195,2.97,5.19-2.972a2.859,2.859,0,0,1,2.836,0l5.195,2.972,5.2-2.976a2.87,2.87,0,0,1,2.832,0l5.2,2.976,5.211-2.976a2.86,2.86,0,0,1,2.827,0l6.091,3.477-1.753,3.069-5.75-3.283-5.211,2.976A2.856,2.856,0,0,1,103.594,240.623Z" transform="translate(-56.43 -233.636)" fill="#b611a9"/>
      </g>
    </g>
  </g>
</svg>
