<svg id="Сгруппировать_16273" data-name="Сгруппировать 16273" xmlns="http://www.w3.org/2000/svg" width="99.89" height="104.257" viewBox="0 0 99.89 104.257">
  <g id="Сгруппировать_16270" data-name="Сгруппировать 16270" transform="translate(1.663 45.517)">
    <path id="Контур_27728" data-name="Контур 27728" d="M69.416,548.39a8.891,8.891,0,0,0-17.782,0l.856,10.678a4.172,4.172,0,0,0,2.227,3.389l4.3,2.832h2.85l4.46-2.832a4.162,4.162,0,0,0,2.227-3.389Z" transform="translate(-42.097 -539.499)" fill="#ffdf77"/>
    <path id="Контур_27729" data-name="Контур 27729" d="M82.879,560.326l-11.751-4v-6.6h-10.4v6.6l-11.751,4a2.119,2.119,0,0,0-1.437,2.006v9.589H84.316v-9.589A2.119,2.119,0,0,0,82.879,560.326Z" transform="translate(-47.545 -525.871)" fill="#ffdf77"/>
  </g>
  <g id="Сгруппировать_16271" data-name="Сгруппировать 16271" transform="translate(61.221 45.517)">
    <path id="Контур_27730" data-name="Контур 27730" d="M94.949,548.39a8.89,8.89,0,1,0-17.78,0l.856,10.678a4.167,4.167,0,0,0,2.227,3.389l4.3,2.832H87.4l4.462-2.832a4.162,4.162,0,0,0,2.227-3.389Z" transform="translate(-67.632 -539.499)" fill="#ffdf77"/>
    <path id="Контур_27731" data-name="Контур 27731" d="M108.414,560.326l-11.753-4v-6.6H86.267v6.6l-11.751,4a2.116,2.116,0,0,0-1.437,2.006v9.589h36.771v-9.589A2.119,2.119,0,0,0,108.414,560.326Z" transform="translate(-73.08 -525.871)" fill="#ffdf77"/>
  </g>
  <g id="Сгруппировать_16272" data-name="Сгруппировать 16272" transform="translate(31.401 52.563)">
    <path id="Контур_27732" data-name="Контур 27732" d="M83.363,551.9a9.377,9.377,0,0,0-18.755,0l.9,11.263a4.4,4.4,0,0,0,2.349,3.573l4.539,2.986h3l4.707-2.986a4.385,4.385,0,0,0,2.349-3.573Z" transform="translate(-54.548 -542.52)" fill="#fff"/>
    <path id="Контур_27733" data-name="Контур 27733" d="M97.562,564.485l-12.394-4.222v-6.955H74.2v6.955l-12.392,4.222a2.235,2.235,0,0,0-1.516,2.118v10.111H99.078V566.6A2.235,2.235,0,0,0,97.562,564.485Z" transform="translate(-60.295 -528.146)" fill="#fff"/>
  </g>
  <path id="Контур_27734" data-name="Контур 27734" d="M140.717,520.775H49.169a.438.438,0,0,0-.438.438v27.7a.438.438,0,0,0,.438.436H59.311l5.015,5.017a.293.293,0,0,0,.411,0l5.015-5.017H89.632l5.015,5.017a.293.293,0,0,0,.411,0l5.015-5.017h17.549l5.015,5.017a.293.293,0,0,0,.411,0l5.015-5.017h12.656a.436.436,0,0,0,.436-.436v-27.7A.436.436,0,0,0,140.717,520.775Z" transform="translate(-44.302 -518.93)" fill="#fff"/>
  <path id="Контур_27735" data-name="Контур 27735" d="M140.717,520.775H49.169a.438.438,0,0,0-.438.438v6.559H133.72a.436.436,0,0,1,.436.438v21.136h6.561a.436.436,0,0,0,.436-.436v-27.7A.436.436,0,0,0,140.717,520.775Z" transform="translate(-44.302 -518.93)" fill="#ffdf77"/>
  <path id="Контур_27736" data-name="Контур 27736" d="M125.227,624.241H70.574v-4.665h5.173v-7.781a4.567,4.567,0,0,1,3.1-4.327l10.808-3.683v-4.558a6.678,6.678,0,0,1-2.939-5.078l-.9-11.249a11.707,11.707,0,1,1,23.413-.186l-.007.186-.9,11.263a6.675,6.675,0,0,1-3.027,5.127v4.495l10.813,3.685a4.568,4.568,0,0,1,3.1,4.324v7.781h6.032ZM80.4,619.576H114.53v-7.781l-10.687-3.58-3.139,3.564H94.451l-3.184-3.613-10.918,3.72Zm16.159-12.462H98.6l2.027-2.3v-2.587l-1.01.644h-4.38l-.912-.6v2.3Zm.072-8.908h1.628l4.135-2.624a2.171,2.171,0,0,0,1.271-1.773l.9-11.182a7.045,7.045,0,0,0-14.09.086l.9,11.077a2.057,2.057,0,0,0,1.1,1.693l.2.121Zm50.093,12.04h-4.665v-9.2l-9.7-3.3-2.883,3.272h-5.955l-2.93-3.324-10.029,3.415-1.5-4.415,9.92-3.38v-4.019a6.356,6.356,0,0,1-2.727-4.791l-.837-10.438a11.031,11.031,0,1,1,22.06-.187l-.009.187-.837,10.454a6.346,6.346,0,0,1-2.811,4.831v3.963l9.922,3.38a4.4,4.4,0,0,1,2.985,4.17Zm-21.1-13.9h1.74l1.787-2.027v-2.029l-.718.455h-4.163l-.627-.413V594.1Zm.042-8.266h1.411l3.795-2.409a1.875,1.875,0,0,0,1.1-1.516l.833-10.368a6.37,6.37,0,0,0-12.74.086l.83,10.267a1.767,1.767,0,0,0,.933,1.432l.205.121ZM51.5,610.246H46.832v-9.386a4.4,4.4,0,0,1,2.99-4.173l9.917-3.377v-3.953a6.418,6.418,0,0,1-2.811-4.847l-.837-10.447a11.031,11.031,0,1,1,22.06-.187l-.847,10.64a6.348,6.348,0,0,1-2.727,4.774v4.019l9.92,3.38L83,601.105l-10.029-3.415-2.93,3.324H64.085L61.2,597.742l-9.7,3.3Zm14.694-13.9h1.74l1.983-2.251v-1.763l-.627.413H65.123l-.718-.457v2.029Zm.285-8.266h1.413l3.834-2.507a1.757,1.757,0,0,0,.931-1.418l.84-10.468a6.375,6.375,0,0,0-12.747.187l.833,10.284a1.759,1.759,0,0,0,.931,1.416Zm58.9-29.764a2.6,2.6,0,0,1-1.861-.777l-4.324-4.322H103.568l-5.015,5.015-1.171.084a2.6,2.6,0,0,1-1.861-.777L91.2,553.221H73.247l-5.015,5.015-1.171.084a2.6,2.6,0,0,1-1.861-.777l-4.324-4.322H51.7a2.774,2.774,0,0,1-2.771-2.771v-27.7a2.772,2.772,0,0,1,2.771-2.769h91.547a2.77,2.77,0,0,1,2.769,2.769v27.7a2.772,2.772,0,0,1-2.769,2.771h-11.69l-5.015,5.015Zm-1.439-4.072-.014.016Zm-27.989,0-.014.016Zm-30.321,0-.014.016Zm36.015-5.691h19.48l4.254,4.254,4.254-4.254h11.725V524.649H53.594v23.907h9.213l4.254,4.254,4.254-4.254H93.128l4.254,4.254Zm22.424-10.06h-5.675v-4.665h5.675Zm-11.662,0h-5.675v-4.665H112.4Zm-11.662,0H95.062v-4.665h5.675Zm-11.662,0H83.4v-4.665h5.675Zm-11.662,0H71.738v-4.665h5.675Z" transform="translate(-46.832 -519.984)" fill="#b611a9"/>
</svg>
