<svg xmlns="http://www.w3.org/2000/svg" width="87.804" height="85.72" viewBox="0 0 87.804 85.72">
  <g id="Сгруппировать_16269" data-name="Сгруппировать 16269" transform="translate(0 0)">
    <circle id="Эллипс_54" data-name="Эллипс 54" cx="4.277" cy="4.277" r="4.277" transform="translate(62.434 9.172)" fill="#fff"/>
    <path id="Контур_27723" data-name="Контур 27723" d="M488.686,116.671H413.1a4.217,4.217,0,0,0-4.218,4.217v41.5a4.219,4.219,0,0,0,4.218,4.217h75.583a4.219,4.219,0,0,0,4.217-4.217v-41.5A4.217,4.217,0,0,0,488.686,116.671Z" transform="translate(-406.993 -82.51)" fill="#fff"/>
    <path id="Контур_27724" data-name="Контур 27724" d="M488.686,142.041H413.1a4.219,4.219,0,0,1-4.218-4.217V143.5a4.219,4.219,0,0,0,4.218,4.217h75.583A4.219,4.219,0,0,0,492.9,143.5v-5.679A4.219,4.219,0,0,1,488.686,142.041Z" transform="translate(-406.993 -63.622)" fill="#ffdf77"/>
    <rect id="Прямоугольник_19460" data-name="Прямоугольник 19460" width="23.503" height="21.153" rx="0.167" transform="translate(22.033 43.17) rotate(-45)" fill="#fff"/>
    <path id="Контур_27725" data-name="Контур 27725" d="M442.815,119.322l-4.509-4.511a.316.316,0,0,0-.447,0l-16.173,16.173a.316.316,0,0,0,0,.447l4.509,4.509Z" transform="translate(-395.646 -84.253)" fill="#ffdf77"/>
    <path id="Контур_27726" data-name="Контур 27726" d="M467.756,124.115l-24.4-24.406a.293.293,0,0,0-.456.055l-14.5,24.353,14.958,14.958L467.7,124.569A.29.29,0,0,0,467.756,124.115Z" transform="translate(-389.575 -97.732)" fill="#fff"/>
    <path id="Контур_27727" data-name="Контур 27727" d="M489.579,184.345H414a6.117,6.117,0,0,1-6.11-6.11v-41.5a6.117,6.117,0,0,1,6.11-6.11h17.727v3.786H424.4v46.152h54.925V136.3h3.786v44.259h6.464a2.327,2.327,0,0,0,2.324-2.325v-41.5a2.327,2.327,0,0,0-2.324-2.325h-6.046v-3.786h6.046a6.118,6.118,0,0,1,6.11,6.11v41.5A6.118,6.118,0,0,1,489.579,184.345ZM414,134.407a2.328,2.328,0,0,0-2.325,2.325v41.5A2.328,2.328,0,0,0,414,180.559h6.621V134.407ZM468.757,174.1h-3.651v-3.786h3.651Zm-7.572,0h-3.651v-3.786h3.651Zm-7.572,0h-3.651v-3.786h3.651Zm-7.572,0H442.39v-3.786h3.651Zm-7.572,0h-3.651v-3.786h3.651Zm25.021-6.659h-.008a2.305,2.305,0,0,1-1.645-.689L449.7,154.609l-3.26,3.258a2.267,2.267,0,0,1-3.118.006l-1.685-1.685-4.242,4.242L426.24,149.278l4.242-4.244-1.677-1.679a2.207,2.207,0,0,1,0-3.123l16.171-16.173c.062-.061.125-.117.191-.17l14.413-24.2a2.187,2.187,0,0,1,3.413-.433l7.528,7.528a6.889,6.889,0,0,1,9.366,9.366l7.521,7.521a2.186,2.186,0,0,1-.4,3.407L462.781,141.5c-.055.066-.114.132-.176.195l-.509.509.312.312a7.5,7.5,0,0,1,1.136,9.116l1.719,1.717a9.387,9.387,0,0,1,0,13.277A2.444,2.444,0,0,1,463.491,167.439Zm1.02-3.368.011.009Zm-12.138-12.139,11,11a5.47,5.47,0,0,0,.85-2.943,5.556,5.556,0,0,0-1.641-3.96v0l-7.155-7.155Zm-8.609,3.256-.009.008Zm-12.172-5.91,5.8,5.8,1.565-1.565-5.8-5.8Zm1-7.485,12.283,12.281,13.941-13.941-2.807-2.809L449.04,144.3l-2.677-2.677,6.972-6.972-6.8-6.8Zm25.513,4.4,2.574,2.574a3.688,3.688,0,0,0-.95-3.574l-.314-.314Zm-26.632-5.525.01.009Zm28.458-1.656-.008.008Zm-10.973-14.1,12.791,12.791,21.524-12.819-21.5-21.5Zm-1.3,1.812-.006.008Zm25.81-17,3.472,3.472a3.1,3.1,0,0,0-3.472-3.472ZM418.329,165.5h-3.786V149.469h3.786Zm26.514-17-2.677-2.677,2.2-2.2,2.677,2.677Z" transform="translate(-407.886 -98.625)" fill="#b611a9"/>
  </g>
</svg>
