<svg xmlns="http://www.w3.org/2000/svg" width="127.146" height="109.567" viewBox="0 0 127.146 109.567">
  <g id="Сгруппировать_16277" data-name="Сгруппировать 16277" transform="translate(0 0)">
    <g id="Сгруппировать_16268" data-name="Сгруппировать 16268" transform="translate(0 19.426)">
      <rect id="Прямоугольник_19458" data-name="Прямоугольник 19458" width="93.431" height="17.565" rx="0.19" transform="translate(2.239 70.595)" fill="#ffdf77"/>
      <rect id="Прямоугольник_19459" data-name="Прямоугольник 19459" width="93.431" height="8.783" transform="translate(2.239 70.595)" fill="#fff" opacity="0.5"/>
      <path id="Контур_27720" data-name="Контур 27720" d="M578.651,368.821H508.467a.515.515,0,0,0-.5.529v68.087H579.15V369.35A.515.515,0,0,0,578.651,368.821Z" transform="translate(-495.787 -366.841)" fill="#fff"/>
      <path id="Контур_27721" data-name="Контур 27721" d="M578.651,368.821H508.467a.515.515,0,0,0-.5.529v10.666H579.15V369.35A.515.515,0,0,0,578.651,368.821Z" transform="translate(-495.787 -366.841)" fill="#ffdf77"/>
      <path id="Контур_27722" data-name="Контур 27722" d="M596.852,457.962H504.174a2.361,2.361,0,0,1-2.358-2.356V438.791a2.359,2.359,0,0,1,2.358-2.354h92.678a2.356,2.356,0,0,1,2.356,2.354v16.814A2.358,2.358,0,0,1,596.852,457.962ZM505.776,454h89.472V440.4h-5.831v5.225h-3.96V440.4h-5.378v5.225h-3.96V440.4h-5.378v5.225h-3.96V440.4h-5.376v5.225h-3.96V440.4h-5.378v5.225h-3.96V440.4H542.73v5.225h-3.96V440.4H533.4v5.225h-3.96V440.4h-5.378v5.225H520.1V440.4H514.72v5.225h-3.96V440.4h-4.984Zm81.882-19.545H583.7v-51.53h-67.22v51.53h-3.96V370.3A2.48,2.48,0,0,1,515,367.821H585.18a2.481,2.481,0,0,1,2.479,2.479Zm-71.18-55.491H583.7v-7.186h-67.22Zm58.128,54.819h-3.96v-8.4H564.93v8.4h-3.96v-8.4H558.53v-3.96h4.162V397.743h-1.236l.863-13.448h10.92l.9,13.448h-1.257v23.683h4.162v3.96h-2.439Zm-7.954-12.359h2.271V393.783h.982l-.37-5.528h-3.5l-.354,5.528h.974Zm-22.345,12.359h-3.96V404.351l7.261-3.55v-9.047l-2.7-1.536V397.4l-8.09,3.808-8.088-3.808v-7.184l-2.7,1.536v9.055l7.8,3.857v29.12h-3.96V407.125l-7.7-3.812-.1-1.394V389.374l1.079-.539,6.388-3.617a2.257,2.257,0,0,1,3.154,2.075v7.6l4.128,1.942,4.13-1.942v-7.6a2.258,2.258,0,0,1,3.154-2.075l.194.1,6.091,3.463,1.1.459.077,1.435v12.419l-1.125.729-6.136,3Zm-2.43-56.839h-3.75v-3.96h3.75Zm-7.92,0h-3.75v-3.96h3.75Zm-7.92,0h-3.75v-3.96h3.75Z" transform="translate(-501.816 -367.821)" fill="#b611a9"/>
    </g>
    <g id="Сгруппировать_16276" data-name="Сгруппировать 16276" transform="translate(52 0)">
      <path id="Контур_27740" data-name="Контур 27740" d="M389,503.1a31.789,31.789,0,1,1,31.79-31.787A31.824,31.824,0,0,1,389,503.1Z" transform="translate(-357.215 -439.522)" fill="#fff"/>
      <g id="Сгруппировать_16275" data-name="Сгруппировать 16275" transform="translate(4 4.426)">
        <rect id="Прямоугольник_19461" data-name="Прямоугольник 19461" width="8.85" height="21.469" rx="0.182" transform="translate(47.58 54.792) rotate(-45)" fill="#ffdf77"/>
        <path id="Контур_27737" data-name="Контур 27737" d="M394.289,485.41a2.7,2.7,0,0,1-1.923-.8l-14.589-14.589a2.709,2.709,0,0,1,.011-3.852l5.655-5.657a2.727,2.727,0,0,1,3.843,0L401.873,475.1a2.718,2.718,0,0,1,0,3.847l-5.666,5.667A2.707,2.707,0,0,1,394.289,485.41ZM382.36,468.1l11.929,11.931,3-3.008L385.366,465.1Zm-1.313,1.315-.018.018Z" transform="translate(-331.528 -413.266)" fill="#b611a9"/>
        <rect id="Прямоугольник_19462" data-name="Прямоугольник 19462" width="4.599" height="7.002" transform="matrix(0.707, -0.707, 0.707, 0.707, 43.034, 47.287)" fill="#b611a9"/>
        <path id="Контур_27738" data-name="Контур 27738" d="M384.779,494.653a27.565,27.565,0,1,1,27.567-27.564A27.6,27.6,0,0,1,384.779,494.653Zm0-50.531a22.966,22.966,0,1,0,22.967,22.967A22.991,22.991,0,0,0,384.779,444.121Z" transform="translate(-357.215 -439.522)" fill="#b611a9"/>
        <path id="Контур_27739" data-name="Контур 27739" d="M372.844,464.658l-8.424-8.426,3.252-3.252,5.172,5.174,10.317-10.317,3.252,3.252Z" transform="translate(-347.851 -428.715)" fill="#b611a9"/>
      </g>
    </g>
  </g>
</svg>
