<svg id="Group_16277" data-name="Group 16277" xmlns="http://www.w3.org/2000/svg" width="106.116" height="109.839" viewBox="0 0 106.116 109.839">
  <g id="Group_16275" data-name="Group 16275" transform="translate(28.779 32.22)">
    <path id="Path_27737" data-name="Path 27737" d="M341.054,417.4l-26.175-23.346L288.03,420.345a.573.573,0,0,0-.571.571v46.129a.573.573,0,0,0,.571.571h52c.314,0,1.021-.408,1.021-.724Z" transform="translate(-275.485 -391.733)" fill="#fff"/>
    <path id="Path_27738" data-name="Path 27738" d="M314.878,394.059l-4.138,4.051,21.629,19.3v49.488c0,.316-.706.724-1.021.724h8.679c.314,0,1.021-.408,1.021-.724V417.4Z" transform="translate(-275.485 -391.733)" fill="#ffdf77"/>
    <path id="Path_27739" data-name="Path 27739" d="M322.487,440.464h-15.4a.316.316,0,0,0-.316.316h0v26.836h16.036V440.78a.315.315,0,0,0-.316-.316Z" transform="translate(-275.485 -391.733)" fill="#ffdf77"/>
    <path id="Path_27740" data-name="Path 27740" d="M340.033,469.352h-52a2.31,2.31,0,0,1-2.307-2.307V422.388L277.8,429.46l-2.312-2.59,39.4-35.137,37.937,33.837-2.312,2.59-8.164-7.282v46.167A2.309,2.309,0,0,1,340.033,469.352ZM324.66,465.88h14.208v-43.8h-17.98v-3.471H339.8l-24.919-22.224-24.916,22.224h7.782v3.472H289.2v43.8h15.956v-25.1a2.055,2.055,0,0,1,2.053-2.052h15.4a2.054,2.054,0,0,1,2.05,2.052Zm-16.036,0h12.564V442.195H308.623ZM326.3,414.653h-4.5v-3.471h4.5Zm-9.145,0h-4.5v-3.471h4.5Zm-9.143,0h-4.5v-3.471h4.5Z" transform="translate(-275.485 -391.733)" fill="#b611a9"/>
  </g>
  <g id="Group_16276" data-name="Group 16276">
    <path id="Path_27741" data-name="Path 27741" d="M312.482,351.36v25.277a.474.474,0,0,0,.472.474h5.869v10.3a.489.489,0,0,0,.864.314l11-10.618H347.52a.473.473,0,0,0,.474-.472V351.36a.471.471,0,0,0-.472-.474H312.956a.473.473,0,0,0-.474.472Z" transform="translate(-263.706 -349.513)" fill="#fff"/>
    <path id="Path_27742" data-name="Path 27742" d="M347.522,350.885H312.956a.473.473,0,0,0-.474.472v4.736h29.832a.471.471,0,0,1,.474.472v20.546h4.734a.473.473,0,0,0,.474-.472V351.36a.471.471,0,0,0-.471-.475Z" transform="translate(-263.706 -349.513)" fill="#ffdf77"/>
    <path id="Path_27743" data-name="Path 27743" d="M300.857,427.609V402.332a.473.473,0,0,0-.476-.474h-5.865v-10.3a.49.49,0,0,0-.866-.314l-11,10.618H265.817a.473.473,0,0,0-.474.472v25.275a.474.474,0,0,0,.472.474h34.566A.475.475,0,0,0,300.857,427.609Z" transform="translate(-263.706 -349.513)" fill="#fff"/>
    <path id="Path_27744" data-name="Path 27744" d="M271.024,422.876a.474.474,0,0,1-.474-.472V401.858h-4.734a.473.473,0,0,0-.474.472v25.279a.474.474,0,0,0,.472.474H300.38a.475.475,0,0,0,.476-.474h0v-4.733Z" transform="translate(-263.706 -349.513)" fill="#ffdf77"/>
    <path id="Path_27745" data-name="Path 27745" d="M300.482,430.182H265.916a2.213,2.213,0,0,1-2.21-2.21V402.7a2.211,2.211,0,0,1,2.21-2.21h16.131L292.5,390.4a2.225,2.225,0,0,1,3.85,1.521v8.568h4.131a2.211,2.211,0,0,1,2.21,2.21v25.278A2.213,2.213,0,0,1,300.482,430.182Zm-33.3-3.472h32.042V403.956h-6.345v-9.1l-9.427,9.1H267.178Zm17.456-2.357h-13.1v-3.47h13.094Zm10.242-6.874H271.524v-3.47h23.351Zm-.021-6.876h-23.35v-3.47h23.35Zm17.488-22.785-.009.005Zm7.079,2.191a2.259,2.259,0,0,1-.767-.137,2.2,2.2,0,0,1-1.469-2.092v-8.57h-4.13a2.213,2.213,0,0,1-2.21-2.21V351.723a2.212,2.212,0,0,1,2.21-2.21h34.566a2.211,2.211,0,0,1,2.21,2.21V377a2.212,2.212,0,0,1-2.21,2.21H331.491L321.038,389.3a2.2,2.2,0,0,1-1.616.706Zm-5.1-14.269h6.339v9.1l9.429-9.1h16.274V352.985h-32.05Zm16.76-2.268H319.413V370h11.674Zm11.66-6.876H319.4v-3.469h23.349Zm-.014-6.874h-23.35v-3.469h23.351Z" transform="translate(-263.706 -349.513)" fill="#b611a9"/>
  </g>
</svg>
